<svg width="640" height="640" xmlns="http://www.w3.org/2000/svg">
    <style>
        path {
            fill: black;
        }

        @media (prefers-color-scheme: dark) {
            path {
                fill: white;
            }
        }
    </style>
    <path
        d="M183.1 405.9a31.696 31.696 0 008.9-7.4l.2-98.4c-7.3 2-12.7-.9-19.3 5.9a15.594 15.594 0 00-.9-6.1 14.803 14.803 0 00-3.1-5.3c-5.4-6.5-4 1.6-12.9 6.1-23 14.3-28.7-30.9-3.9-21.9 5 2.3 13.5 1.6 18.3-.9-15.2-44.4-91.5-14.6-47.7 56.8-3.5 11.6-3.2 24.1-6.6 35.6-6.4 11.8 12.6 3.8 16.8 0-1.5 7.5 11.5 18.1 0 22.7-6.7 9.4 20.8.4 20.6-8.8 3.8 8 10 6.5 8.2 18.3 1.2 5.5 5.9-1.3 7.6-3.9 1.7-2.6 2.5-6.8 3.4-9.9-.5 2.5 7.1 18.7 10.4 17.2zm83.4-125.7c-4.2 13.6 5.1 16 16.4 13.6 6.8 10.8 27.7 12.1 32.6-1.4 14.4 10.3 28-9.1 42.7-5.2 4.6.4 8.1 10.4 13.9 8.2 5.8-2.2 2.3-10.5.4-15.2h57a44.796 44.796 0 0016 13.3V372H195.4v-75.4a36.902 36.902 0 0013.6-16.4h57.5zm140.3 23.1c-2.5 1.7-6.3 7.2-6.4 14.2-14-6.2-10.9 17-3.4 12.9-1.8-9.7 7.7-2.2 7.7 7.6 0 1.2.4 2.9-1.6 3-3.9.7 5 3.8-3.3 10.1 3.8.8 4.1-1 6.7 1.9 4.3-2.9 1.7-1.2 7.2-1.8-10.1-8.8 4.1-8.8-4.4-10.3-1.9-12.7 8.8-20.4 7.1-10.4 6.9 4.3 11.4-19.1-3.3-13-.2-6.9-3.5-11.9-6.3-14.2zm-172.5 2.4c-2.5 1.7-6.2 7.2-6.4 14.1-14-6.1-10.8 17-3.3 12.9-1.9-9.6 7.6-2.2 7.6 7.6 0 1.3.4 3-1.6 3.1-3.9.7 5.1 3.7-3.3 10.1 3.8.7 4.1-1 6.8 1.8 4.2-2.8 1.6-1.2 7.1-1.8-10.1-8.7 4.1-8.7-4.4-10.3-1.9-12.7 8.8-20.3 7.1-10.4 6.9 4.3 11.4-19-3.3-12.9-.2-7-3.5-11.9-6.3-14.2zm104.9 27.6c-1 3.9-1.4 8.5-2.2 12.1-15.2 2.3.9 7.6 7 4.4 3.2-15.4 8.9-14.6 20.9-7.3-3.4 1.2-6.6 2.5-8.1 6 10.7 2.7 23.4-11 9.3-12.9-2.7-2.4-3.9-4.5-5.5-8-3.3-7.8-4.3-4.2.4-8.1 10.4-10.5-7.6-14.6-16.1-9.7-5.1 2-24.9 11.5-20.5-1.1 2-20.5-21.9 26.9 16 5.2 22-11.1 25.3 3.9 8.6 5.6-16.3 0-35.3 13.9-40.3-8.4 2.9-4.7-26.2-5.4-19.6 5.1 9-.3-5.6 4.1-7.5-2.7.4 7.5 5.7 6.2 10.5 5.1-.6 1.3-1.4 2-2.6.8-.2 5 2 3.7 5.3 2.4 5.1 13.9-23.6-4.5-22.2 3.7 45.2 25.4 3.8 13 2.9 22.4 29.9 4.2 38.9 3 63.7-14.6zm-152 73.9c2 19-26.1 31.5-10.4 48.4 1.8 5.4 2.8 11.7 4.4 17.1 5.6 12.4-6.2 11-13.4 11.5-1.1 6.5-4.4 1.8-7.9 1.5-.8-.2-1.8.3-1.4-.9a14.1 14.1 0 00.2-4.1c-12.5 6.8-1.2-16.6-7-22.2 1.1-15 31.3-26.7 13.5-30.8a6.593 6.593 0 01-2.3-2.9 6.299 6.299 0 01-.4-3.6c1.9-11.1 11-8.1 15.8-5.5 2.4-2.4-1-8.8 4.1-6.5 2.2 0 3.1-1 4.8-2zm13 79.5c-4.7-3.1-9.9 4.3-5.1 7.6l17.1 12.3c4.7 3.1 9.9-4.2 5.1-7.6l-17.1-12.3z" />
    <path
        d="M206.8 175c-5.7 7.7-3.5 17.6 3 24.1-9.1 5.4-20.8 23.3-21.5 2.8-4.5 4-10.7 3.6-14.1 9.1-6.1 4.2-8.3-13-6.2-17.4-5.9 8.5-2.5 16.4-12.5 23.3-2.5 8.7 3 19.5-10.8 9.3 1 8.3 1.1 28.3-10.8 14.8 1.5 19.6-5.8 12.3-18 25-27.1-65.4 36.8-106.3 90.9-91zm1 82.9c7.1 19.5-16.8 47.8-33.4 38.8-15.9-23.9-10.5 15.4-35.5-5.3h-.1c-.7-5.3 4.7-13.8 10.4-10h-.1c32.3 10.4 22.7-19 32.6-8.5 10.1-13.6-11.3-13.6-5.1-18.9 1.2-1.4 2.6-2.9 2.8-4.8-9.5 5.3-7.8-2.6-13.2-4.6-17.7-3.9 35.2-24.7 41.6 13.3zm131.4 3.9c15.3-4.8 28.2 11.5 32 24.7 3.5 16.3-11-10-23.4-2.4-11.6 3.6-22.5 14.2-34 2.8-.9 7.3-8.4 14.4-16.7 11.4-5.5-.8-11-2.5-12.3-8.9-2 2.1-8.7 2-12.4 1.5-6.2-.5-3.1-11.1-.4-13.7 6.1-8 20.7-25.3 25.1-6.5 11.3-10.9 28.2-5.3 42.1-8.9zm181.6.2c-2.9-3.6-7.2-5.8-10.9-8.3h-.4a12.007 12.007 0 00-3.3-1.3c1.6-3.7 2.8-11.2 2.1-15.6-3.7 4.2-16.3 8.6-11.8-.1s1.8-17.3.4-25.7c-1.1 2.9-3.6 4.9-5.8 6.9-15.6 12.4-.3-12-14.9-30 2.1 10.3-.6 14.9-8.2 20-3 4.7-11.2-12.9-13.9-15 .2 2 .5 4 .5 6 .6 3.5-5.3 12-11 8.3a26.912 26.912 0 00-6.5-4.5 18.798 18.798 0 00-4.9-8.1c6-6.1 6.1-15 2.4-22.3 52-26.2 119.9 28.2 86.2 89.7zm-199-86c64.6 16.2 2.7 103.2-36.2 50.4 9.6-1.5 19.4-2.6 28.3-6.9 20.6 2.3 18.1-26.2-1.8-22.1-3.4-1.5-19.2-6.4-21.7-8.9 8.4-8.5 17.9-14.1 31.4-12.5z" />
    <path
        d="M290.6 192.8v.2c6.4 2.3 15.4 5.8 21.8 8 16-3.8 17.4 17.7.9 15.1-8.2 3.9-17 5.7-26 6.5-2.1.5-4.6 1.3-6.6.2-4.5-2.8-1.3-10 2.9-10.3a17.9 17.9 0 01.3-11.2c-14.1-.6-2.2-17.7 6.7-8.5zm-3.6 10.1a15.103 15.103 0 00-.5 4.2 10.194 10.194 0 00.6 4.2 1.5 1.5 0 00.6.9 1.397 1.397 0 001.2.3l18.2-2.5a1.501 1.501 0 001.1-.4 2.4 2.4 0 00.6-1.1 2.801 2.801 0 00-.4-1.2 1.597 1.597 0 00-1.1-.5l-18.2-5h-.7l-.6.2a.997.997 0 00-.5.4.902.902 0 00-.3.5zm108.8-42.8c4.5.7 14.6 14.3 15 19.3 3.8-4.7 6-10.6 10.7-14.6 11.1 2.1 18.5 22.2 5.5 29.9 8.5 4.8 9.2 15.4 7.2 23.3-2.2 5.7-17.1-2.1-21-4.4 3.2 7.2 3.8 7.5-3.9 10.1-4.6 1.2-7.3 3.8-12.1 4.4 4.4 4 3.1 10.2 6.1 14.9 4.2 6.5-4.6 4.2-8.2 4.5-3.6.3-8.3 1.6-12.9-.6 3 6-.4 14.3-3.8 19.8s-11.7-5.5-15.3-8.6c-.1 12.2-10.3-2.2-21-1.1-2.3-3.6-5.9-4.5-5.2-10.4.6-2.6-1-7.5 1.1-9.1 12.8-9.2 18.6-27.7 12.8-42.9 11.2-1.9 17.9-12.9 12.4-24.2-.5-3.2 6.9-3 10.1-.9 5.6 3.6 5.2 9.9 11.2 3.8 7.5-3.7 8.1-5.4 11.3-13.2zm-129.1-52.9c23.2 10.3 32.8 32 28.1 55.8-3.271 1.09-7.327 1.395-10.125 3.444l.025.056h-.1l.075-.056A67.195 67.195 0 00264.4 140.5c-24 4.1-28.8-31.6-9.8-29.9 4.2-4.7 8.1-4.9 12.1-3.4zm-96.6 14C165.9 64.4 135.8 42.8 103.2 0L64 29.6c27.8 41.4 43 81.2 92.7 101.1l13.4-9.5zM576 29.6L536.8 0c-29.8 37.6-65.4 71-66.9 121.2l13.4 9.5c45-16.2 67.5-61.9 92.7-101.1z" />
    <path
        d="M220.2 171.2c0-8.9-15.8 8.6-13.7 15.1 1.1 5.8 5.4 10.4 9.1 13.9-10.5 2.1-16 14.9-8.2 20.5l14.1-4.1c-5 10.7-9.1 16 6.8 13.7-.1 3.4 3.3 2.7 5.5 2.7 4.1-.3 7.2 2.6 11.4.9-5.5 4.4-10.4 11.5-8.5 18.8 6.3-.2 13-.5 19.5.7-2 3.7-2.6 10.9-2 15.1 1.1 7.1 5.5 1 9.3 1.9 3.8.9 5.5 1.4 10.1-3.2v2.8c4.1-4.4 10.6-11.9 16.3-11 2.5-5.9.9-12.9 4.8-18.4-6.8-7.2-28-19.8-14.8-30.2 1.4-10.9-22.4-25.3-9.2-35.8 8.6-7.5-16.3-7.5-18.3 11.2-5.8-2.6-11.9-10.5-15.9-15.7-5.9-2.7-13.4 11.5-11.8 17-5.4-5.7-4.6-9.9-4.5-15.9zm112.6-47.4c6.9-15.2-5.7-36.9-23-30.1-3.1 4.1-8.9 1.9-12.5 5.2-6.6 5.4-.3 11.7 7.1 9.7-2.8 2.9-9.1 0-12.4.7-3.3.7-4.1-1.9-5.9-3.7-2.7.3-1.1 3.3.9 4.9 2 1.6 4.8 1.1 7.2 1 5.7-1.4 2.9 6.4 8.1 5.7 25.4-3.2-3.9 6.6-2.7 26.1-.9 7.1-.9 14.5-1.7 21.5-5.2 3.2-19.4 3.6-6.2 10.5s19-12.9 45.7 3.4c4.1-1.6 9.1-7.5 3.8-10-12.6-10.4-13.2-30-8.4-44.9zm146.6 9.6l-11.1-7.9-31.3 42.4c7-2.7 14.2-5.3 21.4-5.6l21-28.9zm-274 37.8l-33.9-46-11 8 25.7 35.5a89.412 89.412 0 0119.2 2.5zM338 257.1c-5.8-3.6-4-11.1-4.3-16.8-10.8 6.4-24.7 7.7-36 1.9-3.7 5.2-2.1 11.9-4.5 17.6a13.698 13.698 0 015.8 5.4c5.7-7.8 44.8-4.5 39-8.1zM444.7 494c4.9-3.4-.5-10.8-5.3-7.4l-16.9 12.1c-4.9 3.4.6 11 5.3 7.5l16.9-12.2zm27.7-76.2c-5.2-11.3-20.4 1.3-11.1-13.2-25 4.4-2.5 29.7 6.4 38.1-7.5 2.6-8.7 10.9-7.4 18.3 1.2 34.9 1.5 5.4 12.1 18.3.9 3.7 3.3 1.5 6.7 1 3.4-.5 5.1 1 9.3-1.9 4.2-2.9 2.1-26 0-29.9-2.1-3.9-28.8-18.8-24.2-20.4 4.6-1.6 10.3-5.3 8.2-10.3z" />
    <path
        d="M201.1 210.1c-4.9 4.1-10.8 9.6-14.1.7a19.586 19.586 0 01-1.2-3.4c-8.5 1.6-13.3 16-19.8 2-1 4.3-4.8 5.9-7.4 8.8-2.5 7.2 4.3 18.5-10.3 14 0 7.9-.8 22.5-12 14.9a16.801 16.801 0 002.1 6.9c13.8-2.1 28.1 6 33.5 18.8 1.5-3.4 5.3-6.8 9-5 1.6-6.9-11.7-5.9-8.4-13.5-3.6.2-5.1-5.9-7.2-6.4-2.1-.5-5.2-1.5-5.9-3.3-3.1-11.4 23.2-15.2 33.1-10.9 14.1 3.5 23.8 27.8 17.8 43.2h44.6c3.9-.6-2.7-2.4-3.7-6.7-1-4.3-.1-9.5.3-13.8-6.3-2.9-18.2 4.8-18.6-5.5.8-4.7 1-10.4 4.7-13.8-3.6-1.4-9.2.5-11.5-3-8.7.7-15.6-3.3-10.6-12-12.4 5.1-15.3-.5-14.4-12zm185.2 41.4c.2 6.7-3.3 16.8-9 20.1-1.6.9-4.1 2.1-7.4 3.6-1.8 4.5 56.4.7 57.4 1.7-22.7-34.9 24.3-73.2 51.7-43.8 2.3 3.1 7.8 8.5 2.1 11.9-5.7 3.4-12 7.3-18.6 8.5-.8 3.9-5.2 6.2-7.7 9.1 6.4-.1 6.7 4 8.1 8.9 8.8-13.4 21.6-22.6 40-19.8a29.104 29.104 0 002.1-8.7c-6.9 4.3-16.2 1.1-11.6-7.6 2.3-5.1 1.8-10.9 1.3-16.3-18.7 15.1-12.9-4.8-15.9-18.1-.7 3.5-3.4 5-5.8 7.2-8.6 8.6-11.1 1.4-16.1-5.6-2.4 8.8-12.6 11.9-18.9 4.4 1.6 17-4.2 19.7-19.4 13.3-.2 6.2-10.5 6.4-14.7 9.1-2.9 1 1.6 11.4 2.7 13.5 4.8 12.6-13.8 6.8-20.3 8.6zM483 578.9l3.5 4.8 11.9 16.1c8.3 10.7 17.4 21.8 26.1 32.3 12.5 14.8 20.9 5.7 12.3-7.9-11.5-17.6-26.4-39.1-39.1-55.9L483 578.9zm12.1-14.2l-48.7-66.2-14.2 10.2 48.2 66.5 14.7-10.5zm-338.3 14.4l-14.7-10.5c-12.2 16.2-28.1 38.9-39 55.7-8.5 13.2-.7 23.3 12.2 8.1 14.4-17.2 28.6-34.9 41.5-53.3zm50.8-70.1l-14.2-10.2c-17.2 23.6-33.7 45.7-48.7 66.2l14.7 10.6 48.2-66.6z" />
    <path
        d="M516.9 326.5c17.3-19.2 17.8-56.8-9.9-70.4-16.7-4.6-28.2 1.3-37.1 11.5-2 3.1-7.7 6.8-1.9 9.5 5.8 2.7 13.7.8 19.5-1.8 27.5-.6-.6 41.8-15.1 18.2-3.4-2.6-6.4 5.4-7.3 8-3.7-2.3-11.8-3.6-16.3-1.9l.2 104.9a36.499 36.499 0 0020.3-14.8c.7 23 15.6 2.7 17.3-9.6 2.9 4 5.2 9.1 8.1 13 8.9 11.3 3.6-8.9 5.4-13.6 1.8-4.7 3.5-9.9 2.7-14.9 3.9 6 19 9 21.4 1.9-5.6-11.3-1.8-24.1-9.6-34.7-.7-1.2 1.8-3.9 2.3-5.3z" />
    <path
        d="M478.8 238.4c-5.4-9.1-13-12.4-22.2-12.3-48.3 4.7-38.1 66.1 7.8 68.9 5.1-8.1 7.1-7.8 13.2-.5a56.214 56.214 0 0017.8-6.6c.4-3.6-1.6-9.6-6.1-10-13.3 7-28.3 4.7-30.4-8.7-1-6.4-9.8-2.4-9.3 2.5-5.8-11.7 11.1-12.6 9.5-21.5 5.8.9 13.5-4.1 18.6-7 2.3-1.1 2.8-2.3 1.1-4.8z" />
    <path fill-rule="evenodd" clip-rule="evenodd"
        d="M445.981 400.522c1.06 52.314 1.881 92.838-58.881 118.978-2.321 1.231-4.671 2.457-7.035 3.691-22.794 11.897-46.886 24.471-58.665 48.209-12.941-22.477-37.118-35.675-60.125-48.235-4.016-2.193-7.996-4.366-11.875-6.565-56.268-23.887-55.377-64.893-54.328-113.201.199-9.128.403-18.516.228-28.099h250.4c-.054 8.685.117 17.096.281 25.222zm-157.973 4.574c-3.37 2.588-6.738 5.176-9.908 5.704-4.4 5.8 6.9 6.7 10.7 6.3a36.366 36.366 0 01-5.7.4c-4.9-.6-8.6 5.3-4.3 2.6 1.7-1.7 4.4-1.7 6.7-1.2l-5.9 1.2c3.615.803 6.247 1.002 8.073 1.139 1.811.137 2.829.213 3.227.761.089 1.668-.895 4.356-2.062 7.545-2.751 7.515-6.519 17.806.362 24.055.2 12.9-1.5 37.6-16.9 36.6-9.5 3.2 8.3 8.7 10.9 4 2.644-3.031 4.716-8.464 6.743-13.777 4.259-11.165 8.317-21.803 17.057-8.523-8.8 17.6 9.6 23.1 22.5 23.5-1.063.489-4.761.969-9.2 1.545-11.006 1.43-26.565 3.451-17.8 7.655 10.2.4 36.2-1.5 40.3-10.2-.041-2.592 3.337-3.999 7.767-5.844 6.337-2.639 14.825-6.175 18.533-15.356 9.8-12.6 4.2-36.8-14-30.2 36.1-4.3 3 73-28.3 17.2l-12.7-23.4c-5.634-7.696-6.17-13.692-6.797-20.713-.285-3.197-.589-6.607-1.403-10.487l-.5-2c-4.988-8.033-11.193-3.266-17.392 1.496z" />
</svg>