<svg xmlns="http://www.w3.org/2000/svg" viewBox="0 0 688 334"><path fill="rgba(0,0,0,0.02" d="M144.9 281.6L386.3 334h-83.2c-7.1-11.4-22.2-6.9-31.5-1.2-1.5 3.4-136 .1-138.3 1.2 5-20.5 9.6-38.3 11.6-52.4zm25.2-115.9l91.5 19.9c1.8 4 8.4 5.6 14.4 6.6h.8c2.8.5 5.7.9 8 1.5 7.6 18.5 37.9 27.2 50.3 8.4 8.9 9.9 24.4 9.9 34.9 6.9l40.6 8.8c2.7 7.9 11.6 11.1 15.8 3.4l89.5 19.5-20.2 93.3c-37.9 12.3-306-54.9-348.6-62.5zm464 99.6c-8.1 27.6-34.1 44.1-47.5 68.7h-2c2.1-3.6 4.3-7.2 6.6-10.7a110.1 110.1 0 00-10.9 10.7h-3.1c28.4-27.6 68.3-65.9 50.8-96.3 10.6 51-59 72.8-98.9 69.9 26.9.4 55.6-6.4 76.8-23.5-19.6 11.3-46.5 20-66.8 6.1 12.6 8.4 28.7 7.8 42.6 2.8a55.4 55.4 0 01-46.5-16c24.6 25.1 70.5 17.9 87.2-13.3 5.7-11.2 5.1-34.4-11.1-34.8 38.3 23.9-21.3 71.2-40.1 32.1-6.2 3.4-6.2 14.3-11.3 10.8-12.7-13.4-21.3-4.3-33.6-14.3-8.8 29.5 6.3 28.8 3 35.6-26.8 28.2-5.4 26.8-12.5 40.9h-6.7c10.3-9.3-13.6-13.7 13.9-43a25.4 25.4 0 01-5.3-20.3c2-13.3 2.4-18.6 6.1-20.5 3.6.2 2.3 2.1 7.8 5.6 2.4 1.7 4.4 1.7 7 1.7 6.2-1 17.4 4.8 21.2 8.2 19.3-29.8 9.2 10.6 37.9 4.2 22-3.1 27.8-37 4.9-36.8-5.6 1-11.4 2-17.1 1 23.8-24.1 59.9-.8 47.6 31.2zM602 299.7c.1 8.7-22.9 27.2-29.8 34.3h-6.8a112.2 112.2 0 0019.3-17.2c-8.4 5-22.1 16.4-31.3 17.2a270.2 270.2 0 0028.6-18.7 125.8 125.8 0 01-56 16.1c28.9-.5 53.2-19.3 76-31.7zm47.8-35.7c-3.8 17-11.4 33.1-22.9 46.2l-.9 1.1a118.2 118.2 0 00-14.9 22.7H610c3.9-9.5 10.9-18.7 17.4-27.4l1.4-1.8c12.1-17.7 24.9-43.7 16-64.8 6.8 44.9-34.5 64-45.9 94h-1.1a54.6 54.6 0 012.6-6.7c-2.3 1.9-3.6 5.8-6.1 6.7 12.8-19.1 29.7-35.8 41-56.1 24.8-48.1-17.5-79.1-57.8-46.2a19.4 19.4 0 01-4.8-2.8c31.3-30 87.1-12.1 77.1 35.1zm-10.1-53.8c34.5 26.5 26.9 82.4-2.2 104.9-2.8 2-8.6 8.8-11.6 12.5a54.8 54.8 0 012.3 6.4h-5.5c-1.7-4.6-3.6-6.7-1-9.6s9.1-11.1 12.9-13.6c56.2-47.9-1-146.2-62.1-81.9a12.5 12.5 0 01-3.1-4.4c15.2-16.3 40.5-30.3 70.3-14.3zM118.5 132c-.6.4-2.1.8-4.7 1-9.6-62.6-92.6-39.7-90.9 16-.1 24 10 52.8 9.1 54.8-2.6 6.1-11.7 26.2-13.5 31.6a71.9 71.9 0 01-10.3 24.4c10.1 2.4 28.7-8 28.3-8 2.6-1.7 5.5 2 3.2 4-.7-.2-7.8 10.9-4.1 15.4 2.8 6.8 4.8 20-3.6 26 23.8.6 24.4-26.6 30.2-24.4 1.8.7 2.2 2.4 1.3 4.2-2.9 9.2-.5 13.6 2.6 18.3 3.3 5 6.6 9.4 4.6 19.2 3.5-.4 14.3-24.1 16.3-25.6 10.4-4.5-3.1 16.2 9.3 36.9 5.6-1.6 17.5-9.7 18.9-14.9 3.1-10.5-3.5-18.1-.7-20.4a3.9 3.9 0 013.5-1.3 23 23 0 0011.6-3.6c-7-10.2-18.7-32 2.8-36.1-2.7-3.4-18.4-11.4-8.2-13.2 0 0 5 1.4 9.3-.3 6-3.1 10.7-15.9 5.6-24-5.9-6.4-11.2-2.1-12.8-6.8 2.5-7.6 23.9-3.1 26.5-30-6.5 4.9-14.6 4.2-21.8 1.4-10.8-1.2-21.6 7.9-21.7 8-2.1 2-5.5-.8-4-3.2s6.2-15.5.1-22.6c-11.8 11.6-37.3 16.4-48.1-3.9-12.6-27.5 29.8-54 40.2-23.9-6.5-1.4-7.7-5-13.1-7.7-16.2-3.8-28.6 15.3-22.4 29.2 10.8 19.3 34.4 9.2 42.2.3 6.8-3.7 11.8 16.8 8.8 23 20-12.2 26.5 6.2 40.6-8.3a2.7 2.7 0 012.9-.7c6.4 4.5-2.7 33.3-19.2 37.6 16.6 7.5 8.3 36.3-5.9 37.4 28 23.4-19.7.4-2.6 31.9 4.5 9 6.9 9.9 7 13.3-2 3.6-11 6.8-15.8 7.2 6.2 19.5-8.2 32.6-24.5 37.4a2.7 2.7 0 01-3-1.5c-2.3-4.1-8.8-20.7-7.2-28.1-2.5 4.6-5.8 11.4-8 13.6s-13.8 12.6-13.4 3.8c6.5-19.7-3.1-15.7-6.5-30.6a33 33 0 01-14.3 11.8c-11.4 3.7-24.6 1.7-23-2.8s5.6-.5 10.7-6.6c6.7-10.4-4.9-20.1-.2-30.6-5.5 3.5-38.8 10.7-26.9-3.6 9.9-15.5 13.8-37.7 23.2-54.1-43.4-123.5 83-143.7 91.6-70.9zm349.8 110.5a33.5 33.5 0 00-16.1 22c-22.9-15.8-24.2 25.9-10.6 20.9-2-2.3 1.4-9.1 6.4-6.4 6.4 5.2 3.7 19.4 2 27.1-5.7-.5-6.8 1.9-1.4 4.1-2.7 5.9-5.7 11.3-10.1 11.9 1.5 1.6 7 2.4 8.8.3-.6 1.8.1 5.1 2.2 5.5-.1-.1-.2 0-.3.1 2.5.9 5-1.5 5.2-4 .8 2.6 6 4.3 8.1 3.4l-.9-.2a23.8 23.8 0 01-3.3-14.6c6.8.5 6.9-2.4.4-4.5 1.9-8.4 5-21.7 13.1-23.7 5.6-.4 5.9 7 3.1 8.4 10.1 10 26.6-28.6-.9-23.5a32.7 32.7 0 00-5.7-26.8zm-184.2-27.2c-3.1 1.8-2.6 3.5-2.1 5.5a4.7 4.7 0 01-.4 4.3h2.2c2-.1 3.9-.2 2.9 3-8.3-.7-13.8-2.1-16.8-10.4-1.9 12.6 6.3 12.9 16.2 12.8-1.7 2.2-3.1 2.8-4.8.3.2 2.5-1.7 4.6.6 6.8s4.2-1.5 7.4-.7-.1 8.4-5.2 8.7c-.9-.1-16.9-5.9-17.5-6.8-3.8-6.8-20.7-8.8-17-4.1s6.4.6 9.5 6.4c5.6 9.8 16.7 18.7 22.8 28.9.4.7-.4.3-1.4.4-5.4 0-10.8 1.8-15.9 2.2-7-2.5-13.3-5.3-18.8 1.9 16.3 5.3 68.5 25.1 82.8 9.2 11.5-2.4 21.8-7.5 33.1-10.3-2.9 6.6-6 13.1-7.8 20.1h-.9c-5.7-.9-11-1.4-13.2 5.2 7.7 2.4 15.6 4.3 23.5 6 4.8-9.4 10-16.8 18.6-23 .6-.4.9-.7 1.5 0a61.3 61.3 0 0019.1 17.1c-6.6 1-12.2 1.9-16.2 7.5 8.5.8 17 1.4 25.5 1.9a308 308 0 004.4-16.5c-2.7-2.7-5-4.9-9-4.2-4.4-5.5-5.7-11.8-7.1-18.2-.7-2.9-1.4-5.8-2.4-8.8-.1-.1.7-.1.9-.2 10.3-2.9 20.6-14 7.3-21.7-15.4-14.3-73.8 15.6-60.3-13.1 2.1-2.6 4.8-5.7 2.6-8.4-9.2-7.3-22.7 24.7-8.4 26.7a54 54 0 0029.7-2.6c44.3-12.6 44.6 16.3 13.3 12-21.5-4.7-42.2 3.7-62.3-7.6.8-7.9 1-14.7-3-21.7a11.7 11.7 0 002.6-4.6c-7.5.5-8.9-.6-15.1-3.6-6.7-1.5-15.7-3.4-20.9-.4zM88.6 104.2a32.7 32.7 0 0121.2 28.7 36.5 36.5 0 01-7.4-.8C101.5 110 71.5 100.5 56 115c-12.2 13.8-7.1 34.9-1 50.7a46.7 46.7 0 0043 14.8 47 47 0 01-41-9.7c7.8 26.6 38.2 24.7 60.9 20.8-18.2 3.4-38.9 7.8-53.9-5.2 6.3 15 38.8 23 52.9 15-15.2 8.2-33.6 2.9-47.8-5a72.2 72.2 0 0045.5 38.7c-31.5-6.7-48.7-35.7-60.6-63.2 8.6 29.6 22.1 59.6 48.6 77.2-35.7-23.3-53-67.5-58.6-108.4-.8 57.8 45.5 102.6 58.1 157-5.7-21.5-16.4-40.8-27.2-60.1A406 406 0 0153.2 195a80.5 80.5 0 01-9.5 40.8c21.2-41.6-9.5-63.5-3.6-103.7-16 23.7 24.7 61.8-6.8 103.6 12.5-17.8 13.5-42.2 6.7-62.5-3-9.2-6.7-18.2-6.8-28.2 3-24.8 29-51.3 55.4-40.8zM213 187.1a34 34 0 00-16.2 22c-22.8-15.8-24.1 25.9-10.7 20.8-1.6-2.6 1.9-8.9 6.5-6.2 6.6 5.1 3.7 19.3 2 27-5.7-.5-6.7 1.9-1.4 4.1-2.6 6.1-5.6 11.1-9.9 11.9 1.4 1.6 6.8 2.4 8.6.4-.6 1.8.2 5 2.2 5.4h-.2l1.2.2-.1-.2c1.9.6 4-2.2 4.1-4.1.7 2.6 5.9 4.3 8 3.4-3.7-1.9-4.1-8.4-4.2-14.6 7.2.5 6.6-2.7.5-4.6 1.8-8 5-21.6 13-23.6 5.6-.5 5.9 6.9 3.2 8.5 10.1 9.8 26.5-28.8-.9-23.7a34 34 0 00-5.7-26.7zm399.2 62.2c2.4 10.8-22.7 9.1-30 9.8a40.7 40.7 0 01-3.1-5.3c16 1 25-2 33.1-4.5zm-41.8-101.8a38.7 38.7 0 0126.9 15.3c1.4 3.2 8.9 15.6 4.8 17.1s-26.6 9.5-33.5 5.5c1.8 12.4-26.2 9.1-21.7 29.6 1.2-6.6 12.4-10.8 15.2-2.6-.2 4.9-1.2 2.9-.1 7.4 9.8 33.3 43.4 11.4 48.2 21.7-21.3 9.6-56.9-.6-53.3-27.9-4.4-3-6.1 7.8-9 9.3-4.7 3.7-8.5-9-5.5-18 7.1-17.2 26.6-12.4 19.5-23-1.5-2.3 1.3-5.2 3.5-3.7a35 35 0 008.1 3.2c5.5.3 18.6-4 24.1-5.3-3.3-15-18.5-22.4-26.4-23.3-69.1-7.4-70.7 82.6-4.6 98.5l-4.8 4.2c-68.4-19.3-64.5-114.6 8.6-108zm-9.8 87.9a42.6 42.6 0 0050.8 8.5 9.5 9.5 0 01.8 3.7 44.4 44.4 0 01-51.6-12.2zm-7.8-10a26.9 26.9 0 005.5 17.5c-6.1-1.5-6.6-12.5-5.5-17.5zM33.3 235.7a43.1 43.1 0 01-5.1 6.2 72.8 72.8 0 005.1-6.2zm504.3-15.3c1.7 9.3 11 10.4 13.6 18.9-6.1-4.2-13.1-10.8-13.6-18.9zm-90.3-37.3a153.9 153.9 0 0033.9 41.4 157.6 157.6 0 01-36.2-38.9 27.3 27.3 0 002.3-2.5zm211.6 40.8l-2.8-4.7c66.5-78.3-15.6-177.9-98.2-155.7l-1-5.1c88.1-22.8 173.7 82.7 102 165.5zM307 148.3c3.4.6 9.2 8.4 7.3 14.6 21.9-13 46.9 1.9 67.3.4 26.7-5.4 48.8 45.3 38.3 57.1-27-45.7-60.5 6.7-85.4-27.2-3.3 8.3-13.9 18.5-24.9 13.6s-20.4-7.3-20.3-19.3c-4.4 3.1-18.7-1.2-21.8-2.9s-1.8-4.8-1.2-7.8c.3-6 6.3-11.6 8.8-13.2 16.3-12.5 24.4-18.6 31.9-15.3zm-10.4 69.2c.2 1.2-2.7 3-3.8 2.4s2.7-4.5 3.8-2.4zm145.5-29a186.5 186.5 0 0020.8 28.2 179.1 179.1 0 01-23-26.2zm14.9-25.1l4.3.5c11 19.9 25.1 38.4 44.1 51.6a156.8 156.8 0 01-48.4-52.1zm-5.5 14.3c8.2 14.4 17.8 29.5 33.3 37-15.8-6.5-26.2-20.5-35.4-34.2.7-.9 1.3-1.9 2.1-2.8zM671.7 132c7.8 26.3 1.1 53.2-19.4 82.4a42.7 42.7 0 00-3.6-3.8c20.1-29.7 22.5-50.7 23-78.6zm-94.4 78.3c-3 3.3-5.9 3.1-10.1 3.1a5.9 5.9 0 000-2.3 42.6 42.6 0 0010.1-.8zm-121.6-41.4c8.6 16.1 21.1 31 33.8 44.1a211.4 211.4 0 01-35.3-40.3l1.5-3.8zm90.3 22.8a42 42 0 00-20.2 20.5c-4.1-8.7 13.2-17.8 20.2-20.5zm-78.4-26.6l4.1.9a102 102 0 0037.1 43.1v.2a103 103 0 01-41.2-44.2zm-33.6 27h1.8a168.4 168.4 0 0011.1 16.4 146.4 146.4 0 01-12.9-16.4zm161-4.5h.3c-4.8 11.8-15.4 22.1-29 20.8a4.9 4.9 0 00-1.4-1.8c13.6 2.3 24.8-7 30.1-19zm-316.7-19.9c-3.3 2.1-7.5 6.9-7.1 12.6 2.9.6 11.4 2.9 14.6 3.1a11.5 11.5 0 005.1-3.9c1.7-2.5 5.7-.4 4.6 2.4-2 4.5-1.8 12.7 6.2 15.8 2.9 1.6 11.9 6.9 18.4 4 8.8-3.6 10.2-16.3 14.1-16.9 4.7 1.1 2.7 6.9 11.7 12.9 25.6 10.5 46.9-18.9 70.7 10.6a51.4 51.4 0 00-19.4-36.2c-14.3-7.4-21.2.1-42.5-6.5s-29.4-3-43.3 4.8c-10.1 2.2 4.5-12.1-6.5-17.4-4.5-2-12.4 3.9-26.6 14.7zM419 177c5.5 10.8 10.9 21.9 20.2 30.4a83.8 83.8 0 01-22.1-28.7zm204.7-72.3c3.1 6.1 1.1 31.7-1.9 38.9 12.7-2.4 16.6-17.3 20.7-16.4s2.2 11.9 1.4 19.6a64.2 64.2 0 01-9.4 33.2c7.5 1.1 14.5-7.9 17.7-6.7 5 3.2-3 27.3-8 33.8a25.7 25.7 0 00-4.4-2.9 56 56 0 008.3-23.2c-5.1 3.7-17.8 6.4-20.5 2.6-.5-4.1 2.4-4.6 6.6-13.9 2.3-2.8 5.5-26.3 5-31.6-3.5 6.1-25.4 17.4-23.9 8.2 4.5-9.2 7.7-37.8-.1-50.4.7 6.6-3.6 19-6.7 21.3-.6.6-3.2 2.1-13.8 7.3a2.7 2.7 0 01-3.4-1.3c-.7-1.1-9.4-22.9-11.5-26.9-.6 8.5-1.1 19.9-16.7 21-4.4-.6-4-5.1-12.4-11.7a26.7 26.7 0 00-1.8-7.9 72.2 72.2 0 0115 14.2c14.8.6 10.6-24.7 8.1-27.7 2-18.3 21.8 30.9 23 34.3 3.8-1.9 9.5-4.8 10-5.2 6.6-6.1 5.2-27.2 2.8-29.6.8-11.5 12.5 6.2 15.9 21zm-35.5 84.6c-3.4 5.9-21.7 19.5-27.8 14.5a42 42 0 0027.8-14.5zm-10 2.5c-4.8 4.6-14.1 11.6-20.9 11 7.1-3.8 14.7-5.6 20.9-11zm27.1-7.9c-1.2 5.2-4.7 16.4-10.3 17.5 5.2-4.7 7.8-11.3 10.3-17.5zm29.9 6.5h.2a24.2 24.2 0 01-3.4 10.3l-1.7-.6a20.7 20.7 0 004.9-9.7zM554 179a45.3 45.3 0 00-30.8 20.8c-.3-13.1 20-19.1 30.8-20.8zm57.9-6.7c.9 5.1-2.3 27.5-8.7 27a46 46 0 008.7-27zm16.3 17.8h.3a27.5 27.5 0 01-3.3 8.8l-1.7-.3a24.9 24.9 0 004.7-8.5zm-9.6-31.3a56.8 56.8 0 01-7.6 39.6l-2.8.2a54.5 54.5 0 0010.4-39.8zm4.2 27c1.4 3.5-2.8 9.1-4.4 12.4h-2.1a46 46 0 006.5-12.4zm-149.3-19.4l3.9.8a82.8 82.8 0 0030.2 30.3v.2a84.4 84.4 0 01-34.1-31.3zm-162.8 29.8l5 1.1a12.5 12.5 0 01-5-1.1zm-8.6-33c-2.9 13.4 5.3 29.4 19.8 30.4a12.2 12.2 0 01-3.4 3c-14.2-4.1-20.3-20.2-16.4-33.4zm103.8 27.6a57 57 0 00-40.6 1.7 58 58 0 0136.9-6.3 41.7 41.7 0 00-42.1.2c12.9-9 39.2-14.2 45.8 4.4zm73.2-23.2c8.1 1.6 16.7 16.8 25.1 22a201.7 201.7 0 01-25.1-22zm22.2-141.1c4.2.7 4.6 3.8 9 12.4s8.4 13.3 7.7 22.3c5-4.7 21-20.7 21.5-19.1 3.5-1.5 9.5 10.4 11.5 14.7 4.7 11.9 2 27.4-13.4 33.2 13.5 11.2 6.6 34.1 2.5 39.3s-23.6-8.4-29.8-14.9c2.4 12.1 3.1 13-9.6 14.2-7.5.4-12.8 3.4-19.9 2.7 4 5.3 2.8 10.7 3.1 16.6.7 10.3 3.4 10.4 1.7 14.4-3.9 2-4.5-.1-15.9-2.2-8-2.2-12-.1-18.1-4.9 3.8 12.7-12.5 30.3-14.9 31.2-6 3.9-15.4-16.3-18-20.4a17.7 17.7 0 01-4.5 8.4 42.3 42.3 0 00-3.3-4.1c4-3.1 3.2-14.3 2.6-14.1-.7-3 3.7-4.6 4.9-1.8s11.1 22.1 16.3 26.8A30 30 0 00444 145c-2.6-3.5 2.9-7.6 4.2-3.4s6.3 12.1 13.3 11.9c3.6 0 14.8 2.9 18.7 3.7-3.4-12.5 2.2-21.5-10.4-29.9-2.3-1.4-4-2.7-2.3-4.7s2.5-1.3 5.2.4c9 6 23.8.3 33.6-.5.9-9.3-7.8-16.5-11.7-17.7a2.7 2.7 0 01-1.6-3c2.3-4.7 9.9-.4 13.5 1.1 8.3 8.4 18.9 19.2 29.9 22.1 6.2-14.5 5.4-24-5.1-34.3-3-6 7.6-4.1 13.8-12.6 6.3-11.8 1.5-20.2-5.4-30.1-3 1.6-8.4 7.7-11.6 10.9-5 5.2-16.7 16.6-15.8 7.2 3.1-11.1-5.3-21.7-10.1-31.6-5 11-17.7 11.3-27.3 16.2-3.9 4.4 0 8.2-4.8 9.2a2.6 2.6 0 01-2.6-2.6c.6-1-2.5-23.1-14-22.7 4.3 22.2-16.7 36.5-31.6 35.1l-.5-5.2c17.4.8 31.2-13.3 26.5-32.4-.5-5.5 10.1-3.4 14.8.4s7.1 9.7 8.5 14.6c10.8-7.6 23.5-4.1 28.1-18.9a2.5 2.5 0 012-1.7zM555.4 168a49.2 49.2 0 00-30.9 18.2c2.8-12.7 19.8-16.4 30.9-18.2zm-156.2 12.7a49.9 49.9 0 00-41.6.5c11.8-6.2 31.2-12.2 41.6-.5zm266-64.4c10.4 19.1 2.6 43.9-6.4 62.1a96.8 96.8 0 006.4-62.1zm-297.8 56.6a40.9 40.9 0 00-11.3 4.4c3.4-2 7.2-5.4 11.3-4.4zm-12.8-2l2.3.5c-2.7.6-4.8 2.1-7.2 3.6a24.3 24.3 0 014.9-4.1zm234.4 2.2c-15-16-41.1-15.6-57.4-1.6 13.5-18.2 43.6-14.5 57.4 1.6zm-324.6-5.8c-2 4.5-7.8 4.4-12.1 5.5a50.7 50.7 0 0012.1-5.5zm226.4-3.8a64.5 64.5 0 0013.4 6 66.2 66.2 0 01-14.3-4.6 4.2 4.2 0 00.9-1.4zM265 158.3a15.5 15.5 0 003.1.6c-4.5 3.9-10.5 7.3-15.6 10.4 3.9-3.4 9.2-7.1 12.5-11zm383.6-63.7c18.1 18.1 18.7 52.9 3.7 73.5h-.1c15.4-22.3 9.2-51.6-3.6-73.5zm-466.4 19.2c-.1 36.9-28.9 55.9-63 53.2a21.8 21.8 0 00-.9-5.2c71.2 12.7 81.9-101.7 8.7-85.5 3.1 2.2 5.6 7.6 6.6 10.7 5 1.8 9-4.6 13.5-2.4s-1.7 13-7 16.7c19.4 13.1.7 42-8.3 28.5-2.5 1.9-3.2 4.9-4.4 7.4-8.3 11.9-36.8 4.8-45.8-2.6h.1a34.7 34.7 0 01-5.9-5.6 6.9 6.9 0 019.1 1.6h-.1c3.7 5.2 33.7 11.7 38 4.2 2.2-6.4 10.3-17.2 14.5-6.5 11.7-9.2 5.4-18.9-3.1-25.1a2.3 2.3 0 01-1-2.2c.2-2.9 6.9-4.8 8.5-9.7-3.8 1.1-10.9 2.2-12.5-1.2-3.3-12.3-7.6-8.4-11.6-14.2 15.7-15.2 65.2-7.5 64.6 37.9zM490 153.4c6.7 4.2 15.3 8.7 22.6 12.3-7.1-2.7-15-5.3-21.8-8.6zM631.3 81c22 13.3 31.3 63.3 15.3 83.9 15.7-26.4 2.8-61.7-15.3-83.9zm-237.1 41.6c-1.9 14.1 14.6 24.4 8.7 38.7 4.7-14.2-12.2-22.9-12.1-36.7zm-148 31a9.8 9.8 0 001.7 1.8 37.2 37.2 0 00-15.8 4.8 40.5 40.5 0 0114.1-6.6zm301.5-29.5c15.3 7.9 50 13.5 53 34.6-8.7-17.1-40.8-20.5-57.1-25.5 2-2.6 2.1-3.7 4.1-9.1zm-302.6 16.5c-1.6 9.1-17 12.3-24.2 17.7 8.3-5.7 16.8-11 24.2-17.7zm135.2-11.5c-1.6 8.9-6.8 20.1 1.5 27.2l-1.7 1.8h-3.9c-6.9-7.8-3.8-19-1.5-27.4a51.2 51.2 0 005.6-1.6zm-313 8.7A83.1 83.1 0 0093 154.7c-8.9 7.2-20-6.2-27.3-11.3a16.3 16.3 0 011.6-5.6zm87.9-30.7c10.3 20.6-7.3 53.9-32.1 49.8 22.8-1.5 41.3-28.3 32.1-49.8zm-8.2 30.4c-6.2 10.1-18 21.4-30.8 18.6-.4.3-2-3.3-2.2-3.5 6.2-.3 12.4-3 15.8-8.5-2 4.8-6.5 8.5-11.4 10.4a40.4 40.4 0 0028.6-17zm261.3-27.4c.9 12 7.9 22.5 15.2 32.2 3.5 4.6 7 9.1 10 13.7-9.9-13.2-25-25.7-28.1-42.6a22.8 22.8 0 002.9-3.3zM389.9 125c2.1 8.8-1.1 19.9 7.7 26-8.2-4-8-13.2-9.8-20.8-3.1 4.5-1.1 8.8.7 13.1 1.8 4.1 3.5 8.3.3 12.6 5.3-12.9-9.5-9.2-2.8-29a17.6 17.6 0 003.9-1.9zM218.5 33.5c-6.3-.2-25.2 1.7-22.2 18.4l26.9-1.9a2.6 2.6 0 011.9 4.6c-4.2 3.5-10.3 12.6-13.2 16.9 5.2 3.2 22.5 1.8 21.7 1.4a2.8 2.8 0 013.1 1.9c.8 3.5-4 3.5-6.1 4.7 9.7 2.2 14.7 8.5 23.6 2.8a2.6 2.6 0 013.3.3c2.2 3.2-.9 5.1-5.3 9.9-10.9 9.6-12.6 3.2-18.2 19.2 6.7.2 15.1 2.6 22.3 6 2.1 1.2 7.2 0 11-.8 6.1-3.4 10.6 2.7 1.4 5.1s-12.5 14.7-13.9 24.1c4.2-2 7.1-.6 10.3.8 9.3 3.5 9.3.8 21.3-9.6 2.2-2.2 5.9 1.1 3.8 3.5-3.7 5.4-5.2 10.5-11.5 13.6a29.8 29.8 0 01.9-4.3c-8.2 5.3-11.1 4.2-15.6 2-2.4-1.3-4.7-2.3-8.2-.8-13 5.1-2.3-24.6 1.8-28-8.1-2.2-17-6.9-24.7-6.5-2-.2-3.7.5-4.9-1.1a2.6 2.6 0 01-.3-2.4c6.7-19.2 8.7-15.8 19.5-23.4-6.9 1.3-11.1-4.7-18.1-5.4-3.7-.6-7.5-1.2-6.5-5.7-24.3-2.5-18.1-6.5-5.7-23.1L194 57.2a2.5 2.5 0 01-2.7-2.2c-2.5-14.8 4.9-25.1 22-26.4-4.5-6.3-12.6-19.7-7.7-29.6h5.7c-9.5 16 17.4 32.3 7.2 34.5zm185 81.8c-2 16.7 14.5 24.8 20.9 38-7.4-12.4-23.7-19.2-24.2-35.2a38 38 0 003.3-2.8zm-155.6 15.3c-.4 4.9-5.6 6.7-8.9 9.9-6 5-12.1 10.3-19.9 12.2 12.2-3.9 17.9-16.6 28.8-22.1zm118.9 14.8a25.4 25.4 0 00.1 3.9c-8.2 4.8-17.7-.5-26.3 2.4 8.3-4.8 18.3.1 26.2-6.3zm123.9-9.9a44.9 44.9 0 0022.8 15.7c-9-2.2-21-6.3-24.9-15.1zm19.6-3.1a231.5 231.5 0 0123.9 16.6l-2.9 1.8a234.3 234.3 0 00-27.3-12.9c4.1 3 8.2 6.3 12.2 9.5-6.8-4.4-13.4-9.2-20.7-12.8zm-270.9-9.6a50.4 50.4 0 017.8 2.4c-10.6 6.7-19.3 17.3-31.8 21.1 9.4-4.1 16.4-11.1 23.5-18.1l3.3-3.2c-16.7 8.9-32.2 20.6-50.9 25.4 18-5.8 32.4-17.7 48.1-27.6zm85.2-3.2l4.1 3.2c-7.5 7.3-6.3 16.7-12.9 25.8a19.2 19.2 0 00-3.9-3.6c5.6-7.8 5.3-18.6 12.7-25.4zM71.4 132a48.4 48.4 0 0019.3 14.8 50.6 50.6 0 01-20.2-13.9zm167-9.4c-18.6 7.4-36.6 18.2-55.9 23.4 8.9-3.7 21.9-7.8 30-13.6s17.6-11.5 25.9-9.8zM367.1 141l-.3 3.3a17.6 17.6 0 01-9.1.6 16 16 0 009.4-3.9zm31.1-21.2a31.4 31.4 0 009 24.1 33.5 33.5 0 01-12-22 22.8 22.8 0 003-2.1zM151.1 95.7c13.7 6.2 21.6 34.6 11.4 45.9 3.5-15.4 3.5-36.4-11.4-45.9zm365 32.1a64.4 64.4 0 0030.7 13.7 66.6 66.6 0 01-32.3-11.2 9.6 9.6 0 001.6-2.5zm-173.1 6a35 35 0 0024.8 3 22 22 0 00-.6 3.7 37.9 37.9 0 01-24.2-6.7zm-120.6-19.2a5.6 5.6 0 00.9 3.1c-12.2 7.2-27.2 16.2-40.9 20.4 13.4-5.1 28.2-15.4 40-23.5zm354.6 3c6.9 6.6 12 15.8 22.7 16.2-10.9.6-17.2-8.6-24.8-14.5zM150.9 81.1c18.5 7.1 25.1 30.7 18.3 48.2 4.2-17.6-.8-39.7-18.3-48.2zm161.5 24.3l2.6 3.9a37.3 37.3 0 01-16.4 19c7.7-5.5 11.8-14 13.8-22.9zm-88.8 4.1a10.2 10.2 0 00-1.2 4.2c-15.7 11.4-24.7 5.8-39.3 13.6 7.7-6 17.8-5 26.2-9.2 5-2.6 9.7-5.6 14.3-8.6zm153.3-84.8c103.3 36.8-17.8 165.4-65.5 66.8a27.2 27.2 0 005.7 0c45.1 86.2 150.2-30.1 58.7-61.7-20.7-3.3-28.6 2.4-40.9 9.3-1.5-.9-2.3-2.7-3.7-3.9 14.6-8.3 22.7-14 45.7-10.5zm34.1 81.8a44 44 0 009.8 19.8 42.5 42.5 0 01-11.8-16.9l2-2.9zm-95.2 4l2.3 2.7a33.2 33.2 0 01-9.5 13 33.8 33.8 0 007.2-15.7zM125.6 97.2c-8.2 10.7 8.4 19.2-2.8 26.9h-.1c2.4-4.2 1.3-8.8.5-13.3-1-4.8-1.7-9.5 2.4-13.6zm483.8-27c22.7 5.3 31 31 35.2 51.4a93 93 0 00-24.3-45.3 95.5 95.5 0 0119.3 43 100.5 100.5 0 00-8.4-21.7 58.2 58.2 0 01.8 25.6 57.6 57.6 0 00-22.6-53zm-303 22.7a72.4 72.4 0 004.9 10.6c-4.3 6.3-9 12.6-15 17.6a75.8 75.8 0 0012.1-20c-3.2 3.3-6.5 6.6-9.8 9.6l8.2-12.2a171 171 0 01-28.1 19.7c9.3-7.6 20.1-15.7 27.7-25.3zm-177.2 17.6a25.2 25.2 0 011.9 8.1 9.2 9.2 0 00-2.3.9 21 21 0 00.4-9zm97.7-8.9c-1.3 3.6-2.8 7.9-7.5 8.6-8.1 4.7-19.2-.7-26 7.2 3.1-4.4 8.5-5 13.5-5.8s12.3-4 18.1-6.7c-6.3.5-22.2.7-29.1.9 7.6-1.1 23.7-2.4 31-4.2zm189.9-5.1c2.6 8.1 10.8 13 15.9 19.6-5.7-5.5-13.3-9.2-17.6-15.9l1.7-3.7zm104.2 6.2a29.4 29.4 0 0013.6 10l-.6 2.8a31.4 31.4 0 01-13-12.8zm-99.5-22.5c31.4 9.5 49.6 4 80.4 3.5-22.5.4-44.8 7.9-67.2 2.5 12.1 15.9 35.7 6.7 52.5 5.9-18.1 2.6-46.2 13.7-57.5-6.7l-2.2-.5a112 112 0 0034.7 28c-16-6.1-29.2-17.5-41.3-29a25.8 25.8 0 00.6-3.7zM399 58.7c20.6 31.3-25 70.7-52.9 45.6A36.8 36.8 0 00399 58.7zM108.3 88c2.3 7.3 6.6 15.1 9.1 22.3a56 56 0 01-9.1-22.3zm286.8-25.3c15.1 25.5-21.5 57.2-44.6 38.8a32.4 32.4 0 0044.6-38.8zM176.8 75.9l.4.5c15.9-2.4 24.5 3.7 40.6 7.3 4.4 7.2 10.3 4.5 16.7 7.9-8.2 9-11.2 7.1-22.9 8h-1.2c-8.3.5-16.6 1.4-24 5.8 12-8.2 27.2-6.4 40.6-10.1-12.5.1-27.3-1.3-39.9-.4 12.8-1.8 28.3-1 41.1-2.2-16.8.5-32.6-5.9-48.9-8.5-12.2-23.7-49.5-22.1-59.9-16.6a41.8 41.8 0 0157.4 8.3zm406.3-10.2a73.3 73.3 0 0113.1 18.2 73.5 73.5 0 00-15-16.5 67.4 67.4 0 0116.1 36.3 66.5 66.5 0 00-21.5-37.4 44 44 0 017.3-.6zM298.7 83.3a10.9 10.9 0 006.8 7.2l.4 1c-8.1 3.2-16.5 8-24.8 10.9 6.7-3.5 13.7-8.7 20.1-12.7a85.3 85.3 0 00-25.3 7.2 60.1 60.1 0 0116.7-8.1c-12.1 3.1-26.2 2.7-37.6 8.1 12.9-8.2 29.6-8.3 43.7-13.6zM391.5 69c10.1 18.6-17.2 41.8-33.9 28.7 19.4 5.8 36.5-8.5 33.9-28.7zm27.9 20.6a31.8 31.8 0 0011 8.9 32.8 32.8 0 01-11.9-6.1 15.2 15.2 0 00.9-2.8zM104.1 72.9c-3.2 8.3-1.1 17 2.9 24.5-7.5-5.1-6-16.9-2.9-24.5zm283.1-1.5c5.7 11.6-8.6 27.9-20.9 24.1 13.8-3.7 19.2-9.9 20.9-24.1zM43.8 92.7a47.6 47.6 0 00-4.7 3.1C31.3 52.5 44.2 20 67.5-1h8.1C51.3 18.2 36.9 49.6 43.8 92.7zM100.4 67a34.4 34.4 0 00-2.6 24l-2.9-1.4a36.7 36.7 0 015.5-22.6zM69.8 11.9c-14.6 22-24.7 50.8-19.2 77.3h-.2a90.3 90.3 0 0119.4-77.3zM330.2 42c8.5 5.9 21.8 14.2 30.7 19.7 25.9-.5 20.9 32.8-3.6 23.3a107.2 107.2 0 01-40.3 1.4c-3.7-.1-8.7.8-11.7-1.9-5.9-5.8 1.3-15.7 7.8-14.7a27.9 27.9 0 014.2-17.1c-21.4-5.5 2.4-27.9 12.9-10.7zM89.9 77.5a33.6 33.6 0 00-.3 10l-3-1a35.9 35.9 0 011.1-8 8.8 8.8 0 002.2-1zm55.3-52.1a39 39 0 0116.9-6c5.3 0 9.3-3.3 12.6-7.9s5.8-8.1 8.2-5.6c4.1 4.1-10.9 11.6-6.8 26.8 5.2-2.9 14.1-6.4 21.1-4.6-2.2 1.3-4.6 2.7-6.2 4.9-14.3 1.4-22.2 18.6-20-11-6.1 4-9.1 1.5-15.6 4.2s-7.9 3.9-8.9 4.9a5.4 5.4 0 01-2.9 1.5c-6.1-2.5-6.1-22.8-.9-30-11.2 6.9-7.3 23.5-21.5 27.6-2.1.9-3.6 1.5-5.2 3.8-7.1 9.4-1 20.2-7.8 19.4-2.4-.7-10.5-4.6-11.9-8.9 0 5.4-5 26.5-8.8 28.5s-9.7-6-12.5-9.4a28.3 28.3 0 00-2.9 21l-5.3.3c-2.9-7.8 2.6-28 7.7-28.7 2.6-.6 6.6 8.4 10.6 11.2 5.2-7.7 7.1-32 7.6-38.5a28.3 28.3 0 01.3-4.1c.4-3.2 5.4-2.6 5.2.5-.6 6.1-.3 18.2 8.4 21.8-.1-6.2 4.5-20 12.6-21.7a14.7 14.7 0 006.5-4.5c4.9-7.6 4.2-16.2 13.5-21.9h11.9c-3.1 5.6-10.4 15.2-5.9 26.4zM498 71.6c-23.1 12.5-51.2 12.9-76.5 8.4l.4-3.7c24.7 5.7 52.7 6.5 76.1-4.7zM316 47c14.8 3.3 26.4 14.9 39.5 22.1-1.2 2.4-6.3 2.8-10.4 3-10.4.5-18.9 2.3-29.1 2.9-2.4 0-5.5-.6-6.9 2s.7 4.1 3.4 4.2c14.9.8 29.7 2.5 44.5-1.5 18.8 7.5 23.6-13 2-12.9-10.7-7.3-22.9-13.7-33.1-21.6-4.4-9.2-16.6-1.3-9.9 1.8zm-70.8-31.8h-.1c4.4 10.3 13.6 15.7 22.4 21.4a177.6 177.6 0 0035.6 21.3c-14.5-12.6-34.7-19.2-43.5-37.5 7.6 12.9 21 19.5 33.8 26.1-5-3.5-10.4-8.7-9.1-15.3-.2 5.4 3.2 9.5 7.8 11.8 2.9 8.5 6.8 11.5 14.4 12.8-2.5 5.9-2.5 12.1-6.9 17-11.9-.6-21.1 8.4-32.9 8.8 10.9-1.6 18.4-10.8 29.3-12.2-9.4-2.1-18.2 3.6-27.6 2.6 6.1-.5 11.7-2.4 17.2-4.7-9.1-1.7-18.3-.9-27.4-2.8s-17.9-4.9-27-1c8-4.1 17.1-2.7 25.7-1s17.5.1 26.2 1c-15.6-4.5-24.4-23-42.2-21.6 10.7-1.6 19.1 4.3 27.4 9.9a48.2 48.2 0 0020.3 9.6c-16.5-9.4-31.5-25.8-50.8-28.9 23 2 40.2 23.1 62 28.7-21.7-10-36.7-30.8-60.1-37.6a77.2 77.2 0 0115.2 5.6 40.1 40.1 0 01-9.7-14zm52.9 62.3a13.1 13.1 0 000 2.8 40.8 40.8 0 00-16.3.9 38.5 38.5 0 0116.3-3.7zm290.7-11.6c5.3 4.2 9.4 9.6 13.9 14.5-5.8-5.3-11.5-10.7-18.3-14.7zm4.2.4c5.3-.2 8.5 6.4 12 9.8-3.5-3.1-8-7.4-12-9.8zM460.3 48.9c.1 8.5-5.3 17-13 21.1 6.7.1 12.6-3.4 18.8-5.5.4-.4 1.5.2 2 .3-5.1 2.1-9.3 5.6-14.6 7.2a61 61 0 0046.9-18.9c-16.3 21.1-44.2 24.1-68.9 20.8 9.8-2.6 28.7-10.8 28.8-25zM201.1 69.3a10.9 10.9 0 00-.7 2.4c-4.8.3-9.6-.5-14.3-.8 5.1-.5 10.1-.5 15-1.6zm120.2-15.8a24.3 24.3 0 00-4.3 16.3l5.4-.6a19.4 19.4 0 013.4-12.8c-1.4-.9-3-2.1-4.5-2.9zm7.9 4.9a14.4 14.4 0 00-2.8 10.4l4.7-.5A16.5 16.5 0 01333 61zm7.1 4.7a9.8 9.8 0 00-1.3 4.8l7.5-.8-5.8-3.8zM176 60.2c6.3 0 12.4 1.8 18.4 2.3l11.6-.8c-8.4 8.1-30.4-3.8-42.2-.7a62.1 62.1 0 0112.2-.8zm-9.7-23.6a10.1 10.1 0 00.9 3.4c-20.6 4.9-43.8 6.7-58.9 23.1 14.3-17.3 37.7-20.7 58-26.5zm19.8 18.6a6 6 0 001.1 3.4c-13.7-1-31.4-4-44.8-.6 13-4.4 30-2.9 43.7-2.8zm237.5-27.3c6.8 4 11.6 8.4 13.1 13 .2 19.1-8.8 18.6-18.6 12.4a55 55 0 00-6.9-12l6.3 5.1c7.4 5.9 14.4 10.3 14-4.6-1.3-2.7-4.6-5.8-10.1-9a9.9 9.9 0 002.2-4.9zm-365 26.9v.4C61.8 35.9 66.7 9.6 84.5-1a107.1 107.1 0 00-25.9 55.8zM186.3 44l-.5 3.9c-16.5 6.8-34.6 1.8-51.6 6.7 16.7-6.2 36.4-1.8 52.1-10.6zM624.7-1l13.4 14.8c-5.5 4.9-14.2 12.9-41.5 37.3a62.7 62.7 0 00-8.6-.9c-7.7-.7-16.5.9-25.9 2.3L623-1zM274.2 18.9a38 38 0 0113.2-16.5c9.5-5.1 23.2-2.6 22.2 1.9s-8.3 2.5-12.6 11.6c-1.4 2.5 4.9 26.1 6.8 27.7a11.2 11.2 0 001 6.5c-6.5-2.9-6.1-3.4-9.9-16.2-4.5-16.1-5.4-21 4.8-28.6-31.1-.9-11.7 50.7-46-6.3h6c4 7.5 10 17.2 14.5 19.9zM169.8 43.3a7.7 7.7 0 002.5 1l-19.9 3.5zm17.6-4.3c-.8 2.7-5.2 2.5-7.6 3.6a52.8 52.8 0 017.6-3.6zM82.6 37.3A99.1 99.1 0 0195.1-1h3.3a86.6 86.6 0 00-15.8 38.3zM409.4 12c3.7 12.2 19.7 15.6-2.9 23.9-20.7-19.7-39.9-20.5-59.9-14.2-4.6-4.6-15.3-7.6-15.5-14.9s20.1.3 20.4-7.8h55.2a81.4 81.4 0 002.7 13zM74 33.5v.6C75.1 26.5 80.3-.8 89.7-1A71.8 71.8 0 0074 33.5zm91.3-2.8l.4 2.5a27.3 27.3 0 01-12.4-.4c3.9-.8 8.3-.4 12-2.1zM326.1 9.5a13.4 13.4 0 002.5 4.9c-11.5 2.1-18.9 1.6-9 11.2a78.9 78.9 0 0014.5 1.9c-1.8.8-4.9 3.3-7.8 4.5-2.9-1.4-6.1-1.5-9.2-1.6-13.8-12.4-6.8-18.8 9-20.9zm-216 12l-.2.6c1.8-6.1 9.5-22.9 16-23.1a56.2 56.2 0 00-15.8 22.5zm89.2-11.2a13.6 13.6 0 00.6 2.9 33.4 33.4 0 00-17.3 8.6 35.5 35.5 0 0116.7-11.5zm36.9 8.5c-2 9.2-13.4-6.8-13.9-19.8h5.2a23.6 23.6 0 004 12.7A26.2 26.2 0 01236.3-1h6.7c-6 6.6-7.3 16.9-6.8 19.8zM97.8 15.2c1.8-4.6 5-15.3 10.1-16.2a46.7 46.7 0 00-10.1 16.2zm326.5-.7c-7.9 1.9-1-6.4 8.6-15.5h5.9a152 152 0 00-14.5 15.5zm-274.1-2.3C154.8 7.5 160.8-.7 167.6-1a62.1 62.1 0 00-17.4 13.2zM672.7 3l-24.9 6.5c-.4-.1-2.4 1.4-2.7 1.5l-11-12h53.4zM428 .8c-3-1-6.1-1.7-9.3-1l-4.1 4.6c2.7.8 4.5 3 7.3 3.8-2.9 0-5.8-2.2-8.7-1.7-.4-1.2-.5-2.6-.8-3.7a8.6 8.6 0 003.4-3.8c2.7.1 10.2-.6 12.2 1.8zm-317.8 6l-.4.6c2-2.5 4.2-8 7.3-8.4a47 47 0 00-6.9 7.8z"/></svg>