<svg width="302" height="50" viewBox="0 0 302 50" fill="none" xmlns="http://www.w3.org/2000/svg">
<g clip-path="url(#clip0_203_94)">
<path d="M29.804 29.492C29.774 34.544 30.704 38.196 25.229 40.567C23.301 41.587 21.123 42.567 20.104 44.618C18.915 42.558 16.517 41.498 14.479 40.337C9.26505 38.116 10.344 34.204 10.264 29.492H29.804V29.492ZM18.855 31.502C18.255 30.532 17.427 31.952 16.727 32.062C16.377 32.523 17.267 32.593 17.557 32.563C17.4114 32.5844 17.2643 32.5944 17.117 32.593C16.727 32.543 16.437 33.003 16.777 32.793C16.907 32.663 17.127 32.663 17.307 32.693L16.837 32.793C17.407 32.923 17.657 32.853 17.727 32.943C17.747 33.383 16.827 34.714 17.587 35.414C17.607 36.414 17.477 38.356 16.267 38.276C15.528 38.526 16.917 38.956 17.127 38.576C17.767 37.846 17.976 35.314 18.985 36.845C18.285 38.215 19.735 38.645 20.733 38.675C20.443 38.815 17.666 38.935 18.635 39.396C19.425 39.426 21.453 39.276 21.772 38.596C21.772 38.106 23.331 38.166 23.83 36.945C24.59 35.955 24.15 34.064 22.731 34.584C25.549 34.244 22.971 40.287 20.533 35.924L19.535 34.104C18.895 33.224 19.095 32.634 18.895 31.663L18.855 31.503V31.502Z" fill="white"/>
<path d="M9.65706 31.817C9.80706 33.294 7.61106 34.263 8.83806 35.58C8.97806 36.009 9.05806 36.498 9.18806 36.917C9.61706 37.885 8.69806 37.776 8.14006 37.815C8.05506 38.285 7.39706 37.916 7.42106 37.855C7.43106 37.755 7.44106 37.655 7.42106 37.546C6.45306 38.075 7.33106 36.249 6.88306 35.809C6.97306 34.642 9.32706 33.724 7.94006 33.414C7.86118 33.3571 7.79975 33.2793 7.76265 33.1894C7.72555 33.0995 7.71427 33.001 7.73006 32.905C7.87006 32.037 8.57906 32.266 8.95806 32.475C9.14806 32.276 8.87806 31.777 9.27806 31.967C9.44806 31.967 9.51806 31.887 9.64706 31.807L9.65706 31.817V31.817ZM31.0121 31.607C30.2941 32.735 31.4821 31.757 31.8901 32.636C32.0501 33.035 31.6101 33.314 31.2521 33.434C30.8921 33.564 32.9681 34.731 33.1381 35.031C33.2981 35.331 33.4581 37.127 33.1381 37.366C32.8081 37.586 32.6781 37.466 32.4091 37.506C32.1391 37.546 31.9601 37.716 31.8901 37.436C31.0621 36.428 31.0321 38.734 30.9421 35.999C30.8421 35.43 30.9421 34.781 31.5221 34.582C30.8221 33.923 29.0761 31.947 31.0221 31.608H31.0121V31.607ZM20.1491 13.783C25.2181 15.046 20.3591 21.799 17.3091 17.701C18.0611 17.581 18.8341 17.502 19.5271 17.164C21.1431 17.344 20.9521 15.125 19.3871 15.444C19.1251 15.334 17.8801 14.946 17.6801 14.748C18.3421 14.091 19.0851 13.654 20.1491 13.783V13.783Z" fill="white"/>
<path d="M17.71 15.061V15.081C18.204 15.261 18.895 15.529 19.39 15.698C20.634 15.399 20.743 17.081 19.468 16.872C18.836 17.171 18.155 17.32 17.463 17.38C17.295 17.42 17.108 17.48 16.949 17.4C16.604 17.18 16.851 16.623 17.177 16.603C17.0902 16.3167 17.0972 16.0101 17.197 15.728C16.11 15.678 17.028 14.345 17.71 15.061V15.061ZM17.433 15.857C17.379 16.063 17.368 16.302 17.443 16.504C17.458 16.563 17.521 16.607 17.582 16.594L18.984 16.394C19.14 16.422 19.164 16.174 19.004 16.156L17.601 15.758C17.544 15.758 17.433 15.778 17.433 15.858V15.857ZM24.523 8.359C26.595 8.239 24.72 11.046 23.418 10.584C22.767 11.226 22.352 12.038 21.868 12.79C19.816 11.387 22.658 6.534 24.523 8.359ZM8.313 9.477C7.983 5.034 5.626 3.343 3.07 0L0 2.312C2.176 5.554 3.37 8.667 7.26 10.218L8.313 9.478V9.477ZM40 2.312L36.93 0C34.594 2.942 31.806 5.554 31.685 9.477L32.738 10.218C36.258 8.947 38.023 5.374 39.998 2.312H40ZM31.588 9.82H31.586L31.596 9.81L31.588 9.82L32.436 10.433L30.816 12.705C30.262 12.725 29.709 12.936 29.166 13.147L31.588 9.821V9.82ZM11.04 13.42L8.414 9.81L7.563 10.441L9.553 13.219C10.053 13.231 10.552 13.299 11.038 13.419L11.04 13.42ZM18.07 12.51C18.43 10.66 17.669 8.96 15.865 8.161V8.151C15.545 8.041 15.244 8.051 14.913 8.421C13.43 8.291 13.801 11.081 15.684 10.761C16.3723 11.2957 16.9167 11.9933 17.268 12.791C17.478 12.621 17.798 12.601 18.069 12.511L18.07 12.51ZM7.27 45.237L6.118 44.417C5.05887 45.8351 4.04405 47.2858 3.075 48.767C2.405 49.808 3.015 50.589 4.026 49.408C5.148 48.058 6.269 46.678 7.27 45.237ZM11.243 39.765L10.123 38.965C8.781 40.805 7.5 42.535 6.319 44.136L7.469 44.966L11.243 39.765ZM32.72 45.254L32.99 45.624L33.931 46.884C34.571 47.714 35.292 48.584 35.973 49.404C36.943 50.564 37.604 49.854 36.933 48.794C35.9588 47.3053 34.9376 45.8479 33.871 44.424L32.72 45.254V45.254ZM33.67 44.144L29.857 38.964L28.757 39.764L32.52 44.964L33.67 44.144ZM10.908 13.762C10.593 14.347 10.744 15.029 11.151 15.522C10.999 15.632 10.197 16.525 9.984 16.346C9.774 16.169 9.847 15.687 9.837 15.431C9.60959 15.6458 9.34538 15.8179 9.057 15.939C8.861 16.023 8.646 16.129 8.491 16.359C8.456 16.378 8.433 16.37 8.406 16.342C8.186 16.112 8.116 15.458 8.254 15.176L7.996 15.024C7.742 15.386 7.684 15.744 7.601 16.03C7.499 16.38 7.311 16.631 7.01 16.835C6.923 17.129 7.011 17.549 6.891 17.832C6.611 17.807 6.311 17.489 6.097 17.33C6.139 17.677 6.381 18.993 5.977 19.02C5.717 19.038 5.421 18.562 5.264 18.387C5.294 18.774 5.379 19.207 5.269 19.586C5.23877 19.7036 5.16518 19.8054 5.063 19.871C4.744 20.094 4.397 20.235 4.103 20.501C3.19 18.109 3.893 16.181 5.313 14.972C6.738 13.761 8.893 13.262 10.908 13.762V13.762ZM10.503 22.384C10.093 22.866 9.373 23.369 8.722 23.048C8.489 22.706 8.056 22.14 7.607 22.523C7.381 22.715 7.222 23.045 6.901 23.085C6.715 23.109 6.431 23.037 5.982 22.678C5.979 22.454 6.118 22.118 6.359 22.051C6.833 21.921 7.456 22.406 8.033 22.236C8.603 22.068 8.615 21.634 8.926 21.279C9.036 21.329 9.121 21.451 9.203 21.537C9.393 21.282 9.621 20.989 9.537 20.65C9.443 20.274 9.077 20.217 8.855 19.972C9.071 19.707 9.152 19.516 9.197 19.183C9.02 19.28 8.802 19.45 8.594 19.446C8.47 19.443 8.393 19.27 8.324 19.184C8.164 18.986 8.024 19.009 7.847 18.897C8.057 18.625 8.594 18.566 8.901 18.541C9.342 18.506 9.829 18.57 10.23 18.809C11.459 19.541 11.285 21.466 10.503 22.384Z" fill="white"/>
<path d="M5.47301 30.89C5.56901 30.696 5.84001 30.683 5.90301 30.415C6.02601 29.892 5.43801 29.477 5.54101 28.981L5.63101 28.541C5.35701 28.783 4.55101 29.535 4.12401 29.271C4.10001 29.19 4.17701 29.076 4.21401 29.009C4.49401 28.074 4.46801 27.079 4.75801 26.146C4.12101 25.107 3.58601 23.888 3.71101 22.64C3.80101 21.734 4.23901 21.067 4.80801 20.67C5.37801 20.27 6.08201 20.14 6.70801 20.31C7.29801 20.47 7.82801 20.896 8.12301 21.636C7.73987 21.7789 7.31873 21.7828 6.93301 21.647C6.41101 21.458 6.00601 21.544 5.75101 21.815C5.50801 22.075 5.43601 22.467 5.48701 22.824C5.61901 23.747 6.47301 24.12 7.25701 23.632C7.56501 23.476 7.71401 23.216 7.95201 22.995C8.40301 23.307 8.35801 23.854 8.32401 24.325C8.80401 23.826 9.19301 23.759 9.87201 23.648L9.85201 31.1C9.68408 31.294 9.48461 31.4583 9.26201 31.586C8.93301 31.361 8.68401 30.821 8.65001 30.428C8.65001 30.421 8.40301 30.358 8.36001 30.346C8.22601 30.75 8.16001 31.143 7.82001 31.438C7.81301 31.445 7.79001 31.471 7.78601 31.458C7.89501 30.685 7.41201 30.563 7.12901 29.968L6.84401 30.038C6.85701 30.535 5.84401 30.924 5.47301 30.89V30.89ZM35.245 25.445C35.173 25.627 34.952 25.807 35.068 26.017C35.634 26.788 35.402 27.812 35.781 28.654C35.535 29.087 34.598 28.718 34.401 28.418L34.127 28.522C34.18 28.88 34.066 29.246 33.935 29.62C33.792 29.982 33.949 30.426 33.906 30.803C33.564 30.483 33.411 30.005 33.136 29.633L32.919 29.341C32.832 29.946 32.672 30.587 32.204 31.021C32.042 31.171 31.936 31.177 31.87 30.953C31.78 30.649 31.8 30.311 31.79 29.998C31.384 30.614 30.95 31.158 30.226 31.421L30.206 23.525C30.622 23.442 31.066 23.58 31.416 23.798C31.49 23.586 31.558 23.103 31.799 23.052C32.328 23.879 33.293 23.762 33.844 22.989C34.067 22.675 34.202 22.275 34.107 21.937C33.976 21.474 33.477 21.359 33.053 21.369C32.626 21.555 32.07 21.729 31.619 21.522C31.537 21.484 31.487 21.457 31.536 21.374C32.157 20.304 33.379 19.836 34.551 20.156C36.513 21.132 36.601 23.935 35.245 25.445V25.445ZM21.536 20.602L21.543 20.599C22.669 20.252 23.578 21.489 23.853 22.426C23.87 22.508 23.88 22.571 23.885 22.618C23.579 22.413 23.305 22.154 22.955 22.024C22.215 21.748 21.48 22.409 20.798 22.611C20.356 22.743 19.956 22.651 19.625 22.323L19.409 22.108C19.363 22.472 19.307 22.811 18.993 23.052C18.685 23.287 18.021 23.199 17.685 22.997C17.425 22.842 17.395 22.565 17.34 22.295L17.141 22.507C17.008 22.649 16.285 22.739 16.179 22.519C15.881 21.899 17.149 20.396 17.769 20.665C18.033 20.78 18.066 21.198 18.124 21.45C19.112 20.494 20.323 20.914 21.536 20.602V20.602Z" fill="white"/>
<path d="M28.808 18.711C29.405 17.958 30.682 17.536 31.588 18.001C31.85 18.137 32.085 18.355 32.287 18.688L32.288 18.69L32.289 18.692C32.38 18.832 32.227 18.872 32.117 18.937C31.774 19.137 31.32 19.454 30.902 19.389L30.696 19.357C30.728 19.545 30.77 19.707 30.635 19.867C30.414 20.129 30.071 20.268 29.936 20.605C29.859 20.798 29.87 21.018 29.996 21.277L30.28 21.196C30.259 20.986 30.667 20.761 30.711 21.036C30.806 21.623 31.189 21.974 31.685 22.094C32.159 22.209 32.729 22.114 33.258 21.845C33.468 21.898 33.55 22.189 33.555 22.377C33.185 22.583 32.787 22.735 32.374 22.821C32.224 22.645 32.028 22.401 31.774 22.402C31.512 22.405 31.337 22.673 31.21 22.868C29.55 22.728 28.547 21.554 28.384 20.375C28.302 19.775 28.437 19.178 28.808 18.711V18.711ZM34.741 19.611C34.889 19.125 34.891 18.653 34.803 18.158C34.574 18.418 34.343 18.653 33.985 18.717C33.825 18.746 33.852 18.699 33.925 18.561V18.559C34.34 17.743 34.023 16.776 33.88 15.918C33.684 16.418 33.493 16.878 32.96 17.114C32.885 17.147 32.91 16.757 32.91 16.709C32.912 16.183 32.917 15.325 32.322 14.59L32.059 14.716C32.194 15.349 32.019 15.759 31.484 16.114C31.454 16.134 31.456 16.144 31.427 16.121C30.967 15.741 30.795 15.127 30.319 14.742C30.345 15.155 30.563 15.951 29.96 16.102C29.73 16.16 29.477 15.835 29.288 15.735C29.2227 15.5394 29.1205 15.3581 28.987 15.201C29.373 14.721 29.387 14.081 29.162 13.54C31.097 12.638 33.3 13.172 34.729 14.507C36.148 15.831 36.798 17.937 35.648 20.197C35.3801 19.9528 35.0736 19.7548 34.741 19.611V19.611ZM13.369 13.452C13.782 13.999 14.195 14.482 14.824 14.774C14.884 14.222 15.384 13.236 16.103 13.479C15.898 13.788 15.62 13.933 15.669 14.353C15.738 14.926 16.215 15.382 16.503 15.861C16.628 16.068 16.697 16.241 16.697 16.388C16.205 16.812 16.341 17.378 16.717 17.828C17.037 18.208 17.442 18.495 17.8 18.835C17.585 19.226 17.645 19.669 17.517 20.082C16.712 20.116 16.397 21.175 15.59 20.987C15.362 20.934 15.23 21.099 15.03 21.103C15.023 21.094 14.952 21.06 14.936 20.96C14.869 20.516 15.014 20.081 15.231 19.702C14.687 19.595 14.149 19.582 13.594 19.596C13.543 19.156 13.849 18.714 14.234 18.401L14.081 18.147C13.864 18.238 13.169 18.154 12.976 18.06C12.955 17.998 12.976 17.908 12.979 17.843C12.729 17.877 12.305 18.034 12.1 17.857C12.04 17.805 12.148 17.596 12.17 17.545C12.294 17.26 12.44 16.983 12.573 16.703L11.229 17.093C11.039 16.923 11.007 16.669 11.111 16.415C11.1762 16.2616 11.278 16.1265 11.4075 16.0215C11.5371 15.9166 11.6903 15.845 11.854 15.813L12.164 15.753L11.921 15.55C11.5913 15.2687 11.3578 14.8915 11.253 14.471C11.263 14.095 11.671 13.524 12.033 13.374C12.083 13.919 12.021 14.321 12.435 14.754L12.687 14.606C12.613 14.361 12.785 14.027 12.909 13.828C12.99 13.696 13.175 13.414 13.369 13.452V13.452ZM27.945 13.069C28.273 13.171 28.567 13.525 28.675 13.949C28.833 14.559 28.525 14.951 28.033 15.242C28.699 15.627 28.937 16.244 28.743 17.011C28.573 17.39 27.173 16.496 26.931 16.355C27.04 16.599 27.167 16.846 27.258 17.099C27.286 17.177 27.298 17.201 27.221 17.242C26.7376 17.4989 26.2112 17.665 25.668 17.732L25.914 17.957C26.214 18.232 26.149 18.758 26.366 19.087C26.404 19.145 26.466 19.204 26.381 19.217C25.753 19.301 25.095 19.264 24.531 18.996C24.831 19.616 24.791 20.202 24.426 20.784C24.405 20.82 24.376 20.837 24.334 20.827C23.947 20.735 23.512 20.116 23.212 19.855C23.212 20.023 23.247 20.238 23.186 20.398C23.172 20.434 23.139 20.421 23.108 20.412C22.658 20.282 22.318 19.938 21.816 19.949C21.541 19.59 21.382 19.253 21.492 18.751C21.5 18.716 21.51 18.709 21.511 18.708C22.541 17.978 22.98 16.534 22.614 15.341C23.496 15.098 23.904 14.151 23.53 13.328C24.185 13.046 24.291 14.031 24.793 13.914C25.373 13.778 25.776 13.254 25.989 12.737C26.606 13.16 26.893 13.723 26.947 14.441C27.289 14.017 27.553 13.448 27.945 13.069V13.069Z" fill="white"/>
<path d="M24.298 21.473C24.961 21.156 25.31 20.499 25.35 19.779C25.818 19.735 26.521 19.961 26.88 19.586C27.292 19.156 26.593 18.516 26.654 18.064C27.026 17.844 27.622 17.896 27.829 17.446C28.72 17.785 29.426 17.522 29.415 16.542C29.645 16.681 29.901 16.715 30.14 16.654C30.2699 16.6199 30.3915 16.56 30.4977 16.4779C30.6038 16.3957 30.6924 16.2931 30.758 16.176C30.873 16.349 30.988 16.538 31.163 16.656C31.585 16.944 32.059 16.464 32.35 16.174C32.388 16.608 32.283 17.257 32.597 17.588C32.87 17.875 33.3 17.606 33.553 17.428C33.576 17.751 33.57 18.059 33.445 18.337C33.345 18.524 33.31 18.702 33.345 18.859C33.3624 18.9343 33.3964 19.0049 33.4445 19.0654C33.4926 19.126 33.5536 19.175 33.623 19.209C33.811 19.307 34.056 19.316 34.293 19.245C34.274 19.33 34.251 19.415 34.222 19.498C32.896 19.349 31.934 19.951 31.25 20.853C31.188 20.661 31.078 20.489 30.883 20.41C31.04 20.278 31.201 20.136 31.276 19.94C31.793 19.82 32.276 19.525 32.695 19.276C32.8096 19.2157 32.8956 19.1127 32.9346 18.9893C32.9735 18.8659 32.9622 18.7321 32.903 18.617C32.24 17.127 30.047 16.962 28.863 17.937C27.909 18.725 27.403 20.105 28.134 21.455C26.944 21.466 25.75 21.561 24.56 21.494C24.4725 21.4896 24.3852 21.4829 24.298 21.474V21.473ZM14.47 20.162C14.455 20.296 14.437 20.447 14.428 20.588C14.415 20.779 14.414 20.98 14.453 21.17V21.172L14.454 21.174C14.4895 21.3041 14.5613 21.4213 14.661 21.512H11.626C12.053 19.946 10.991 18.027 9.27604 17.994C8.70604 17.983 7.99404 18.073 7.54604 18.462C7.20604 18.758 7.16304 19.234 7.57604 19.436C7.67063 19.4805 7.76946 19.5153 7.87104 19.54C8.03904 19.676 8.07604 19.9 8.29104 20.005C8.22904 20.445 8.73004 20.497 8.94904 20.761C8.74604 20.767 8.56904 20.892 8.44304 21.044C8.20727 20.6241 7.86156 20.2763 7.44304 20.038C6.9758 19.7722 6.43834 19.656 5.90304 19.705C5.88813 19.6716 5.87478 19.6376 5.86304 19.603C5.98304 19.646 6.09804 19.656 6.20504 19.629C6.70204 19.504 6.72904 18.767 6.74004 18.355C7.07704 18.43 7.44004 18.375 7.49204 17.973C7.52804 17.696 7.44404 17.406 7.52304 17.133C7.66904 16.983 7.85304 16.875 7.97804 16.705C8.04655 16.8213 8.14871 16.914 8.27104 16.971C8.69104 17.141 9.06604 16.557 9.41104 16.403C9.47904 16.602 9.56704 16.829 9.75304 16.943C10.024 17.11 10.325 16.923 10.54 16.753C10.545 17.009 10.582 17.298 10.769 17.489C10.954 17.679 11.226 17.706 11.563 17.617C11.5474 17.6825 11.5407 17.7497 11.543 17.817C11.5454 17.8944 11.5633 17.9706 11.5955 18.041C11.6278 18.1115 11.6739 18.1747 11.731 18.227C11.93 18.412 12.25 18.481 12.579 18.465C12.761 18.651 13.032 18.632 13.272 18.645C13.079 18.975 12.832 19.863 13.272 20.127C13.634 20.344 14.082 20.087 14.469 20.162H14.47Z" fill="white"/>
<path fill-rule="evenodd" clip-rule="evenodd" d="M15.82 21.898C15.49 22.958 16.22 23.148 17.1 22.958C17.63 23.808 19.27 23.908 19.65 22.858C20.274 23.303 20.883 23.028 21.497 22.752C21.984 22.532 22.475 22.311 22.98 22.448C23.133 22.46 23.271 22.608 23.415 22.762C23.609 22.969 23.811 23.185 24.07 23.088C24.515 22.92 24.256 22.283 24.106 21.911L24.1 21.898H28.55C28.8793 22.338 29.3075 22.6943 29.8 22.938V29.066H10.26V23.177C10.7352 22.8652 11.1074 22.4199 11.33 21.897H15.82V21.898ZM26.28 24.807C26.28 24.267 26.58 23.837 26.78 23.697V23.707C26.9332 23.8466 27.0559 24.0163 27.1402 24.2057C27.2246 24.395 27.2688 24.5997 27.27 24.807C28.43 24.327 28.07 26.167 27.53 25.827C27.66 25.047 26.83 25.647 26.98 26.647C27.253 26.692 27.223 26.719 27.15 26.783C27.047 26.874 26.857 27.042 27.32 27.446C27.164 27.461 27.09 27.453 27.045 27.448C27.024 27.445 27.009 27.444 26.994 27.445C26.956 27.449 26.92 27.475 26.794 27.563L26.76 27.586C26.626 27.44 26.57 27.443 26.469 27.45C26.411 27.453 26.339 27.458 26.23 27.436C26.645 27.128 26.522 26.915 26.449 26.786C26.405 26.711 26.379 26.665 26.49 26.646C26.629 26.638 26.625 26.539 26.621 26.454L26.62 26.416C26.62 25.646 25.87 25.056 26.02 25.816C25.43 26.136 25.18 24.327 26.28 24.806V24.807ZM12.8 24.997C12.82 24.447 13.1 24.027 13.3 23.897V23.887C13.4577 24.0278 13.5838 24.2004 13.67 24.3934C13.7562 24.5865 13.8005 24.7956 13.8 25.007C14.95 24.527 14.59 26.347 14.05 26.007C14.19 25.227 13.35 25.827 13.5 26.827C13.775 26.877 13.743 26.905 13.668 26.972C13.565 27.064 13.38 27.23 13.84 27.626C13.7504 27.6364 13.6599 27.6377 13.57 27.63C13.549 27.629 13.534 27.627 13.52 27.63C13.487 27.634 13.457 27.654 13.358 27.72L13.29 27.766C13.154 27.624 13.098 27.628 12.994 27.635C12.916 27.6423 12.8373 27.6393 12.76 27.626C13.176 27.311 13.052 27.099 12.978 26.973C12.935 26.899 12.908 26.855 13.02 26.836C13.17 26.826 13.15 26.696 13.15 26.596C13.15 25.826 12.4 25.246 12.55 25.996C11.96 26.316 11.71 24.517 12.8 24.996V24.997ZM21.395 26.605C21.375 26.739 21.355 26.87 21.33 26.986C20.14 27.166 21.4 27.586 21.88 27.336C22.13 26.136 22.57 26.196 23.51 26.766C23.24 26.866 22.99 26.966 22.87 27.236C23.71 27.436 24.7 26.376 23.6 26.226C23.4 26.036 23.3 25.876 23.17 25.596C23.1194 25.477 23.0599 25.362 22.992 25.252C22.962 25.204 22.949 25.18 22.953 25.162C22.957 25.145 22.977 25.132 23.016 25.106C23.056 25.079 23.116 25.039 23.2 24.966C24.02 24.147 22.6 23.827 21.95 24.207L21.914 24.222L21.81 24.265C21.277 24.49 20.033 25.015 20.35 24.127C20.5 22.527 18.63 26.227 21.59 24.527C23.31 23.667 23.57 24.827 22.27 24.967C21.902 24.967 21.517 25.057 21.147 25.144C20.229 25.359 19.397 25.554 19.12 24.307C19.34 23.947 17.07 23.887 17.59 24.707C18.29 24.687 17.15 25.027 17 24.507C17.03 25.078 17.437 24.99 17.803 24.911L17.82 24.907C17.77 25.007 17.72 25.057 17.62 24.957C17.602 25.326 17.745 25.269 17.971 25.18L18.03 25.157C18.253 25.758 17.657 25.578 17.104 25.411C16.664 25.278 16.251 25.153 16.3 25.437C18.567 26.707 18.046 26.763 17.362 26.835C16.981 26.875 16.549 26.921 16.52 27.186C18.86 27.516 19.56 27.416 21.5 26.046C21.455 26.2307 21.42 26.4176 21.395 26.606V26.605Z" fill="white"/>
<path d="M21.42 20.092C20.96 19.818 21.07 19.34 21.05 18.9C20.21 19.39 19.13 19.49 18.25 19.05C17.96 19.451 18.1021 19.858 17.922 20.298C18.11 20.388 18.266 20.531 18.372 20.708C18.822 20.112 21.87 20.366 21.42 20.092ZM10.635 38C10.263 37.757 9.86105 38.346 10.233 38.61L11.579 39.587C11.951 39.831 12.353 39.252 11.981 38.977L10.635 38ZM29.76 38.596C30.151 38.321 29.7201 37.74 29.3491 38.015L28.025 38.974C27.634 39.249 28.0651 39.851 28.4361 39.575L29.76 38.596ZM21.005 9.451C21.542 8.261 20.5681 6.57 19.2181 7.101C18.9791 7.421 18.532 7.251 18.254 7.511C17.737 7.931 18.224 8.421 18.8 8.261C18.582 8.491 18.095 8.261 17.837 8.321C17.578 8.371 17.519 8.171 17.38 8.031C17.171 8.051 17.3 8.291 17.45 8.411C17.608 8.541 17.827 8.491 18.006 8.491C18.453 8.381 18.2341 8.991 18.6311 8.941C20.6181 8.691 18.3331 9.451 18.4331 10.972C18.3631 11.532 18.363 12.113 18.293 12.663C17.896 12.913 16.793 12.943 17.817 13.473C18.84 14.014 19.2871 12.473 21.3631 13.743C21.6811 13.623 22.068 13.163 21.661 12.963C20.678 12.153 20.628 10.623 21.005 9.451ZM60.293 20.885C59.229 20.163 57.044 19.213 54.46 19.213C52.123 19.213 49.3301 20.144 49.3301 23.146C49.3301 26.3 52.522 26.604 55.239 26.775C57.101 26.927 58.3741 27.193 58.3741 28.39C58.3741 29.549 57.12 30.157 55.543 30.157C53.035 30.157 51.268 28.903 50.223 28.067L48.684 29.929C50.128 31.107 52.2941 32.38 55.5051 32.38C58.5451 32.38 61.091 31.183 61.091 28.124C61.091 24.704 57.5571 24.438 55.2961 24.286C53.6811 24.153 52.0471 24.077 52.0471 22.975C52.0471 21.911 53.149 21.455 54.384 21.455C56.436 21.455 57.9941 22.234 58.7351 22.785L60.293 20.885ZM72.196 19.593V27.535C72.196 30.889 66.3441 30.8802 66.3441 27.535V19.593H63.6081V27.535C63.6081 34.0007 74.931 34.0096 74.931 27.535V19.593H72.196ZM84.457 32C86.794 32 88.143 31.373 89.207 30.366C91.56 28.0516 91.6138 23.7332 89.321 21.36C88.219 20.239 86.737 19.593 84.457 19.593H78.624V32H84.457ZM81.341 29.663V21.949H84.362C85.825 21.949 86.49 22.31 87.117 22.937C88.5973 24.4584 88.5037 27.2884 87.022 28.77C86.376 29.34 85.787 29.663 84.362 29.663H81.341ZM101.589 32C103.28 32 104.211 31.601 104.971 30.879C106.763 29.1306 106.43 26.0041 103.907 25.141C105.543 24.2889 105.972 22.1255 104.686 20.79C104.002 20.068 102.9 19.593 101.361 19.593H93.931V32H101.589ZM101.494 26.623C102.083 26.623 102.52 26.813 102.862 27.155C103.128 27.44 103.299 27.801 103.299 28.2C103.299 28.599 103.128 28.998 102.862 29.283C102.539 29.587 102.064 29.758 101.494 29.758H96.668V26.623H101.494ZM101.038 21.854C101.646 21.854 102.007 21.987 102.273 22.272C102.501 22.5 102.653 22.804 102.653 23.165C102.653 23.545 102.501 23.906 102.235 24.172C101.95 24.457 101.551 24.571 101.038 24.571H96.668V21.854H101.038ZM117.599 19.593V27.535C117.599 30.889 111.747 30.8802 111.747 27.535V19.593H109.011V27.535C109.011 34.0007 120.335 34.0095 120.335 27.535V19.593H117.599ZM126.744 32V27.44H130.43L132.938 32H136.054L133.147 27.003C135.564 25.9456 136.525 22.9491 134.629 20.942C133.831 20.106 132.672 19.593 130.905 19.593H124.027V32H126.744ZM131 21.892C131.97 21.892 132.919 22.4385 132.919 23.507C132.919 24.457 132.14 25.141 131.19 25.141H126.744V21.892H131ZM146.191 19.593L143.189 23.906L140.168 19.593H136.786L141.726 26.338V32H144.462V26.338L149.383 19.593H146.191ZM158.399 32V27.44H162.085L164.593 32H167.709L164.802 27.003C166.322 26.338 167.31 25.103 167.31 23.507C167.31 22.519 166.93 21.626 166.284 20.942C165.486 20.106 164.327 19.593 162.56 19.593H155.682V32H158.399ZM162.655 21.892C163.625 21.892 164.574 22.4385 164.574 23.507C164.574 24.457 163.795 25.141 162.845 25.141H158.399V21.892H162.655ZM169.443 25.768C169.443 29.454 172.521 32.38 176.454 32.38C180.387 32.38 183.541 29.454 183.541 25.768C183.541 22.158 180.387 19.213 176.454 19.213C172.521 19.213 169.443 22.158 169.443 25.768ZM172.293 25.768C172.293 23.469 174.117 21.569 176.454 21.569C178.829 21.569 180.691 23.469 180.691 25.768C180.691 28.105 178.829 30.043 176.454 30.043C174.117 30.043 172.293 28.105 172.293 25.768ZM184.817 19.593L188.788 32H191.372L193.69 24.628H193.804L196.141 32H198.725L202.696 19.593H199.846L197.452 27.744H197.338L194.811 19.593H192.816L190.27 27.744H190.156L187.781 19.593H184.817ZM207.921 32V19.593H205.204V32H207.921ZM220.511 19.593V27.288H220.492L214.165 19.593H211.828V32H214.564V24.324H214.583L220.891 32H223.247V19.593H220.511ZM238.82 21.436C237.034 19.992 234.887 19.213 232.93 19.213C229.092 19.213 226.09 22.158 226.09 25.787C226.09 29.435 229.054 32.361 233.025 32.361C234.963 32.361 237.224 31.62 238.839 30.423V24.856H232.55V27.098H236.293V29.188C235.514 29.72 234.26 30.024 233.139 30.024C230.365 30.024 228.921 27.972 228.921 25.806C228.921 23.488 230.574 21.569 232.949 21.569C234.241 21.569 235.932 22.139 237.015 23.127L238.82 21.436ZM257.011 28.067C255.928 29.15 254.351 30.043 252.66 30.043C250.095 30.043 248.442 28.143 248.442 25.806C248.442 23.488 250.057 21.569 252.565 21.569C253.895 21.569 255.491 22.177 256.631 23.165L258.341 21.379C256.859 20.106 254.617 19.213 252.337 19.213C248.328 19.213 245.592 22.215 245.592 25.787C245.592 29.435 248.309 32.38 252.432 32.38C255.149 32.38 257.315 31.164 258.74 29.834L257.011 28.067ZM261.184 19.593V32H271.197V29.663H263.901V19.593H261.184ZM281.753 19.593V27.535C281.753 30.889 275.901 30.8801 275.901 27.535V19.593H273.165V27.535C273.165 34.0007 284.489 34.0095 284.489 27.535V19.593H281.753ZM295.838 32C297.529 32 298.46 31.601 299.22 30.879C299.999 30.119 300.379 29.207 300.379 28.219C300.379 26.775 299.6 25.635 298.156 25.141C299.068 24.666 299.714 23.716 299.714 22.652C299.714 21.949 299.429 21.303 298.935 20.79C298.251 20.068 297.149 19.593 295.61 19.593H288.181V32H295.838ZM295.743 26.623C296.332 26.623 296.769 26.813 297.111 27.155C297.377 27.44 297.548 27.801 297.548 28.2C297.548 28.599 297.377 28.998 297.111 29.283C296.788 29.587 296.313 29.758 295.743 29.758H290.917V26.623H295.743ZM295.287 21.854C295.895 21.854 296.256 21.987 296.522 22.272C296.75 22.5 296.902 22.804 296.902 23.165C296.902 23.545 296.75 23.906 296.484 24.172C296.199 24.457 295.8 24.571 295.287 24.571H290.917V21.854H295.287Z" fill="white"/>
</g>
<defs>
<clipPath id="clip0_203_94">
<rect width="302" height="50" fill="white"/>
</clipPath>
</defs>
</svg>
