<svg xmlns="http://www.w3.org/2000/svg" viewBox="0 0 640 640"><path d="M320 0a320 320 0 100 640 320 320 0 000-640zm98.6 194.4l7.3 5.2-13.9 19.2c-4.8.2-9.6 1.9-14.2 3.7zm34.8 90.6a9.9 9.9 0 00-2.8-2.6l-1.2-.8-1-.7-.6-.4-.6-.4-.3-.2a13 13 0 00-3.2-1.4 22.1 22.1 0 001.4-10.3c-2.4 2.8-10.8 5.7-7.8-.1s1.2-11.5.2-17a7.2 7.2 0 01-1.1 1.9l-.4.5-1.8 1.8-.5.4-.5.4-.6.4c-8.6 6.3.4-10-8.8-20.7 1.1 4.7.2 9.7-3.6 11.7-1 .6-2.7 3.2-3.9 1.7s-5.3-7.6-7.2-10.1c1.4 3.9-.8 12-6.9 9.5a20.1 20.1 0 00-4.4-3 14.1 14.1 0 00-3.2-5.4 11.9 11.9 0 002.4-12.7l-.8-2.1c34.5-17.4 79.6 18.7 57.2 59.6zm-2.7 48.7c2.2 3.4 1.9 6.5 2.2 10.2v.6a62.5 62.5 0 002.6 9.9c-1.5 4.7-11.6 2.7-14.1-1.3.5 3.3-.7 6.8-1.8 9.9s2 14.7-2.5 10.4c-2.6-2.9-4.2-6.9-6.5-10-.1 5-8.3 18.9-10.7 11l-.2-.6a18.4 18.4 0 01-.6-4c-3.9 5.5-10.4 10.4-17.4 10.3a13.7 13.7 0 01.6-11.9c-2.6.9-3.8.5-3.1-2.7v-.7l.4-1.9a96.1 96.1 0 013.6-11.9c-6.4 1.5-3-4.7-1.6-7.3s-5.4-4.2-.2-15.3a27.9 27.9 0 011.8-3.4c-3.8-2.4-4.4-8.9-4.3-13.5v-1.1c0-1.9 1.4-3.3 2.8-1.8 4 2.9 8.9-1 14.5 2.6v-.2l.2-.6c0-.1 2.7-6.3 4.6-4.5 15.1 17.4 28.8-20.9 3.5-10.2-3.2.4-6.6.2-8.5-2.4l1-1.5a28.5 28.5 0 012.5-3.3c27.6-27.4 52.4 16.3 31 39.3l-1.7 3.2c.9.9 1.4 1.8 1.9 2.7zm-39.6 85.9v-1.4c-1-5.6-.5-11.6 5.2-13.4a40.8 40.8 0 00-4.9-4.1l-1-.9c-1.9-1.6-3.4-3.6-2.8-6.2-3.1-2.4-3.5-4.5-3.5-7.5v-.7a11.3 11.3 0 01.5-3.2 59.8 59.8 0 007.1-2.5 9.4 9.4 0 00-1.6 3l-.2.6v.4l-.2.5v.7h2c5.7-1.2 11.4 5.7 5 9.1a11.3 11.3 0 01-3.9 1.7c2.1 2 5.5 3.9 7.3 5.8l.4.3.7.8.2.3c4.5 3.5 9.9 4.2 9.7 10.2a5.7 5.7 0 01.1 1.3v7.1a33.1 33.1 0 010 6.3 7.2 7.2 0 01-5.9 2.2c-2-.5-5.1 2.5-6-.6-.4-1-.4-1.4-2.6-1.7l-.2-.3c-.5-.7-1.1-1.2-1.4-.6h-.1l-.3.5h-.1a3.5 3.5 0 01-3.1 1.6c.2-2.6-.1-6.2-.4-9.3zm-179-41.1c-1.3.8-3.4 3.3-4.7 1.3s-5-7.3-5.2-10.7c.1 2.2-5.5 14.5-7.3 9.2 1.2-7.9-3-6.8-5.5-12.2-1.4 8-18.8 11.2-13.6 5.9 7.7-3.3-1.1-10-.1-15.1-1.9 1.7-13.7 7.6-11.8 1.6 3.3-8 2.5-17 5.1-25.3-29.1-47.4 21.5-67.2 31.7-37.7-2.3 1.5-6.1 1.5-8.8 1.5-23.3-9.6-14.9 28.7 3.2 10.5 3.2-6.6 7.7 2.9 7.2 6.7 6.1-6.5 11.5.1 16.2-7.1 4.5-3 3.3 13.9-3.5 16.8 7.6 1.6 6.7 14.3.9 16.1 14.6 8.1-12.3.2 5.9 18.4-.5 1.6-3.9 3.7-5.9 4.4 3.6 6.3.9 12-3.8 15.7zm-8.1 33.4l.2.3v.6h.1l.2.3v2.3l.2.7.8 3.4.4 1.5.3 1.4.3 1.2.3 1.2.3.9a20.3 20.3 0 01.5 6c-3.8-.8-5.7 1.8-9.6.4-1 5.6-2.9.8-6.3 1.3v-2.2c0-.3.1-1.1-.1-1.2-.9 1.6-2.9 1.1-4.2.4a11.4 11.4 0 01.2-2.5l.3-2c.5-2.9.9-6.4-.4-9s-.2-3.5 1.2-4.5 1.1-7.9 4.8-7.4a34 34 0 007.3-8.3c-14.4-1.7-1.5-18.7 3.3-8.7 1.2-1.7 1.6-3.1 1.3-5.9a3.4 3.4 0 004.1 0l1.1-.7a23 23 0 01-4.2 12.9l-.5.7-.5.8-1.5 2.1-.4.7c-1.7 4-3.8 9.6.5 13.3zm.1-101.9a10.4 10.4 0 00-.8-2c-1.6-2.9-5.8-7.9-8.7-3.5h-.1a15.5 15.5 0 01-2.4 2.7 18.4 18.4 0 01-2.2 1.7 37.4 37.4 0 01-10.2-4v-.5c-.5-3.4 3.1-9.1 6.9-6.5h-.1c2 1.8 15.1 1.8 16.2-1.7s2.8-8 5.4-4c3.4-4.1 1.5-7.2-1.7-9.2-1.5-.9-3.6-1.4-1.6-3.4a5.7 5.7 0 001.8-3.2c-6.1 3.6-5.2-1.7-8.7-3-11.7-2.9 23.6-16.3 27.6 8.7 3.6 14.6-7.6 26.5-21.4 27.9zm21-5.1h39.8c2 2.4 7.3 1.1 10.4 1.3 4.8 7 18.1 8 21.7-1.1 4.6 3.4 10.9 2 15.1-.2h17.7c1.8 3.1 5.8 3.5 6.8 0h39v46H245.1zm51-60.2c-2.4.3-4.3-1.4-4.2-2.7-.6-4.7 6.1-6.2 8.7-2.8l14.4 5.3c10.7-2.6 11.7 11.7.6 10a48.9 48.9 0 01-17.3 4.3c-6.2 2.8-7.9-5.3-2.4-6.7a11.7 11.7 0 01.2-7.4zm6.1 38.8c1.6-3.8.5-8.2 2.9-11.7h.1c7.5 3.9 16.8 3 24-1.2v.5c0 3.7-.9 8.4 2.8 10.7.8.3.8.8-.1 1-8.6 2.1-18-1.1-25.8 4.3a9 9 0 00-3.9-3.6zm-5-22.2h.7c6.2-.9 12.4-1.7 18.1-4.5 13.7 1.6 12.1-17.3-1.2-14.6-4.2-1.8-10.7-3.4-14.5-6 1.3-1.1 2.6-2.4 4-3.4a22.4 22.4 0 0116.9-4.9c42.9 10.7 1.8 68.5-24 33.4zm7.6 29.4c7.5-7.2 18.8-3.5 28-5.9s15.5 4.2 18.8 10.6l.3.6.3.6.3.5.3.6a20.9 20.9 0 011.3 3.5c2.2 11.4-6.9-7.6-17.2-1-7 2.7-13.9 8.4-21 1.3-.7 4.9-5.5 9.5-11.1 7.6-3.7-.6-7.3-1.7-8.2-5.9-1.5 1.3-10.9 2.7-10.5-1.7v-1.3a8.1 8.1 0 012-5.1l.3-.3 1.9-2.3 1.1-1.2.7-.9.5-.5.4-.5.5-.5.4-.4c3.9-4.8 10.1-4.4 10.9 2.2zm106-29.6c6-.1 11.3 2.3 14.7 8.2 3.9 3.1-11.2 8.8-13 7.8 1.1 3.5-3.6 5.1-5.4 7.4s-2.4 3.8-1 6.9c-.3-3.5 6-5.9 6.2-1.3 1.8 8.6 11.4 10 20.2 5.4 3 .3 4.3 4.3 4 6.7a38 38 0 01-11.8 4.3c-3.8-4.7-5.6-4.9-8.8.4-30.4-1.9-37.2-42.7-5.1-45.8zm-38-42.5c2.6 3.9 6.7 6.5 7.4 11.5 2.5-3.1 4-7.1 7.1-9.8 7.6 1.7 12.3 14.8 3.7 20 5.1 2.8 5.9 8.9 5.2 13.9-.6 6.7-10.8.5-14.4-1.3 1.5 3.7 3.1 5-1.6 6.4s-5.7 2.7-9.1 3.3c2.9 2.6 2.2 6.9 4.1 9.9a3.2 3.2 0 01.7 2.5c-2 1.4-4.6.2-6.8.6s-5 1-8-.5c1.9 3.5.1 8.4-1.7 11.9-2.7 5.7-4.7 1.6-7.5-1.4a25.1 25.1 0 00-10.9-6.7 8.6 8.6 0 00-3.6-4.4l.7.4.1-2.5a31.8 31.8 0 008.4-35.2c3.2-3 4.4-7.9 1.9-12.9-.7-2.2 3.9-2.3 6.2-1.1a11.6 11.6 0 014.8 5.3c1.8-1.9 4.1-3 6.2-4.3 4.6-1.6 2.6-10.5 7.1-5.6zm-14.4-34.9c17.9-1 1.6 22.9-9.5 18.9a71 71 0 00-11.8 16.5c-1.6.9-1.7 0-1.3-1.3v-.2l.2-.3v-.3l.9-1.7a83.1 83.1 0 0110.8-14.2c-3.3-5.7-5-12.2-1.3-18.5-10.3 5.8-14.4 17-17 27.3-3.4-11.5 17-40.1 29-26.2zm-60.9-2.6c1.7 4 5.5 1.5 8.6 2.8.5.6 1.4-.2 2.1-.1l.7-.2c4.2-1.4-10.7 2-4.2-6.7 2.1-2.4 5.9-.9 8-3.3l.5-.4c7.3-3.5 15.3 3.6 16.5 10.6.6 3.6-1 8.7-2 12.6a28.4 28.4 0 005 25.5l.3.3 1.2.8.2.2.3.2.2.2c2.5 1.7-1.2 5.2-3.3 6-10.3-6.2-18-5-26.1-.5-2.3-.9-12.1-4.4-5.9-6.6 1.7-.5 4.4-.9 5.7-2s.4-5.1.6-7.5v-6c.9-16.8 17.8-19.4 3.1-18.2-2.1.2-4.3-.2-3.9-3.4-2.2-1.1-5.4.7-7.5-1.1s-1.9-3.1-.1-3.2zm-20.9 3.4c2.8-3.2 5.4-3.3 8-2.3 9.4 3.9 20 15.7 19.3 25.8-3.5-8.2-7.3-17.3-15.4-21.8.5.6.7 2.8.7 4.2v.8l-.3 5.3v.5c-.4 2.8-.1 6.2-3.6 6.7a46.9 46.9 0 0112.9 17 5.1 5.1 0 00-1.6.9 43.5 43.5 0 00-13.4-17.2c-16 2.7-19.2-21-6.6-19.9zm-23.2 38.7c1.1 4.4-1 8 3.4 12.1-.8-4.1 3.3-12.5 7.8-11.3 2.9 3.8 6.3 8.4 10.5 10.5 1.2-12.4 18.6-12.6 11.8-7.1-2 1.5-3.4 3.8-1.7 6.6a12.5 12.5 0 00.4 15.2c-6.6 10.3 3.2 16.7 9.4 23.7-.9 2.7-.3 5.6-1.5 8.2a25 25 0 00-3.4 2.7 87.7 87.7 0 00-6.3 7.2c-1.5-.3-2.6-1-4.2.1-5.4 3.1-3.3-9.5-1.9-11.7-3.5-.1-6.9-1.4-10.3-.6-1.1.2-3.2.9-3-.9.9-7.2 1-6.6 5.9-11.5-2.1.8-3.6.2-5.5-.4s-5.6 1.1-5.7-2c-10.3 1.5-7.9-1.8-4.4-9.1l-9.4 2.8a1.2 1.2 0 01-1.3-.7c-2.4-6-.3-10.9 6.7-13-8.4-6-7.4-17.9 2.7-20.8zm-6.6 20a11 11 0 00-4.9 4.6c-2 .5-3.6 2.1-5 3.3-3.1 3.4-4.4-4.2-4.3-6-2.7 2.4-5.7 2.1-8.3 4.7-4.1 7.1-7-6.9-5.2-10.2-2.2 2.1-2.3 5-2.8 7.7v.5c-1.5 7-7.9 3.9-5.7 14.1.5 3.7-5.5 1.1-6.9-.7a16.4 16.4 0 01.2 2.3v1.3a34.9 34.9 0 01-.5 6.5c-.1.7-.4 2.4-.8 2.5s-2.3.2-3.4-.6l-.5-.4-2.2-1.8a12.2 12.2 0 00.7 9 26.5 26.5 0 00-12.7 7.6c-17.9-43.4 24.5-70.5 60.4-60.4-3.9 4.9-2.4 11.9 1.9 16zm-2.9-18.5a60.6 60.6 0 00-12.7-1.7l-16.6-22.8-.5-.8 7.3-5.2zm-72.2-60.3l-.8-1.3-.9-1.3-1.3-2-1.3-1.9-2.1-3.4-2.1-3.3-1.7-2.6-6.2-9.7-2.3-3.6-.9-1.4-.8-1.3-.6-.8-.7-1.1 26.1-19.7.4.4.3.4.4.6.4.6 1.4 1.7.7 1 .7.9.8 1 .8 1 .8 1 1.2 1.5.9 1.1 2.3 2.7 4.7 5.8 2 2.3 1.9 2.4 1 1.3 1 1.2 1.5 1.8 2.4 3.1.9 1.3.9 1.2a77 77 0 0113.5 25v.6l.2 1.1v.9l.5 2.7.3 2.1.4 3.1c.2.6 1.3 10.6 1.9 10.7l-8.9 6.3c-12.5-7.2-26.1-12-33.7-24.7l-.8-1-.8-1.1-.8-1.2-.8-1.1-.8-1.2-.9-1.3zm38.8 332.8l-1.1 1.5-1.1 1.5-1.6 2.1-1 1.4-1.5 2-1.5 2-1.4 1.9-1.5 1.9-1 1.3-1 1.2-1.5 1.9-1 1.3-1.6 2-1.6 2-1.7 2.1-2.4 2.9-3.9 4.8c-8.6 10-13.8 3.3-8.2-5.4l6-8.9 3.8-5.7 1.3-1.9.7-1.1 2-2.8 12.2-16.6 9.7 7zm2.9-4l-9.8-7 19-25.9 12-16.2 1.4-1.9 9.4 6.8zm35-45.8l-11.3-8.1c-3.2-2.3.2-7.2 3.3-5.1l11.4 8.2c3.2 2.2-.3 7.1-3.4 5zm4.1-8.2l-9.4-6.7 3-4.1a34.5 34.5 0 007.7 9zm68.1 37.6c-14.6-16.5-39.4-25.6-57.8-38l-1.1-.8c-15.4-9.4-16.6-24.5-16.9-43v-14.3l.3-10.4v-12.2l-.2-2.8h150.7l-.2 3.2v11.3l.2 9.3v12.4c6.9 56.7-46.4 52.5-75 85.3zm73.7-47.9l2.6 3.4-9.4 6.7-.9-1.3a35.9 35.9 0 007.7-8.8zm-7.4 16.1c-1-2.9 11-9.2 12.5-10.9 3.1-2.3 6.7 2.7 3.5 4.9l-11.2 8.1a3 3 0 01-4.8-2.1zm7.7 3.8l9.4-6.8 32.3 44-9.7 7zm61.3 81.9l-4.7-5.6-2.4-3-1.8-2.1-1.7-2.1-1.6-2-1-1.4-1.1-1.3-1-1.3-1-1.3-1-1.3-1.1-1.4-1.5-2-1-1.4-1.1-1.4-1.6-2.2-1.7-2.3-1.1-1.5-1.2-1.7 9.8-7 8.7 11.9 4.4 6 1 1.5.4.5 2.9 4.5 8.6 12.7c5.6 9 .1 15.1-8.2 5.2zm33.9-399.6l-2.1 3-.7 1-.7 1.1-1.1 1.7-1.1 1.8-1.5 2.5-5.3 8.5-1.3 2.1-1.7 2.8-.9 1.3-.9 1.4-.9 1.4-.9 1.4-2.3 3.4c-7.4 10.6-14.4 20-23.6 24.6-4.4 2.7-12.2 5.6-16.3 8.7l-8.9-6.3c.6-.6 1.1-6 1.3-6.8l.8-5.7.5-3.4.3-2 .3-1.9.2-.8v-.4a82.5 82.5 0 0115.5-28l2.5-3.1.9-1.2 1-1.3 1-1.2 1.5-1.8 1-1.2 2-2.4 5.7-6.9 1.3-1.6 1.3-1.6.8-1 .9-1 .7-1 .8-1 .7-1 1.7-2.2.6-.8.3-.4c.2-.3.4-.7.7-.8l26.1 19.7z"/></svg>