<svg xmlns="http://www.w3.org/2000/svg" viewBox="0 0 1392 790">
  <g fill="none" fill-rule="evenodd">
    <path fill="#BBF7D0"
      d="M920 115c164-24 280 31 348 164 102 200 297 515 174 563S885 445 867 326c-12-79 6-150 53-211zM369 263c44 24 114 8 211-47C724 132 763 96 760 81c-4-15-235-61-326 67-61 85-82 123-65 115z" />
    <path fill="#DCFCE7"
      d="M377 267c-7 25 33 80 36 100 141-45 315-105 460-118 3-65 13-126 66-132 176-22-164-39-177-30a874 874 0 01-385 180z" />
    <path stroke="#b3d6ff" stroke-width="27"
      d="M1382 790c-32-87-60-149-82-186-33-55-148-199-193-228-45-30-114-85-150-98-36-12-77-29-107-29-20 0-92 12-216 35l-200 83c-65-14-121-21-168-21-71 0-159 57-202 21-29-24-46-51-50-83" />
    <path fill="#4B5563"
      d="M274 362l21 12v25l-21 13-22-13v-25l22-12zm0 15l-9 5v10l9 5 9-5v-10l-9-5zM644 291l21 12v25l-21 13-22-13v-25l22-12zm0 15l-9 5v10l9 5 9-5v-10l-9-5zM1132 412l21 12v25l-21 13-22-13v-25l22-12zm0 15l-9 5v10l9 5 9-5v-10l-9-5z" />
    <path stroke="#b3d6ff" stroke-linecap="round" stroke-width="21"
      d="M1062 340c-17-34-25-64-25-89 0-37 0-136-62-147s-108 79-108 136" />
    <ellipse cx="1132" cy="304" fill="#b3d6ff" rx="25" ry="20" />
    <path stroke="#b3d6ff" stroke-linecap="round" stroke-width="19" d="M420 367c-21-18-35-37-40-58-9-31-24-84 40-150" />
    <path stroke="#b3d6ff" stroke-linecap="round" stroke-width="10" d="M376 249c-38-11-57-24-57-39" />
    <path fill="#DC2626" fill-rule="nonzero"
      d="M855 223l1 52a6 6 0 01-12 1v-21a506 506 0 00-76 5c-45 6-94 17-146 35l-2 1-46 18-3 1h-1l-3 1-5 2-2 1-69 27 8 19a6 6 0 01-11 4l-20-48a6 6 0 0111-5l8 19 129-50 1-1h1a745 745 0 01225-41v-19a6 6 0 0112-1z" />
  </g>
</svg>