<svg viewBox="0 0 1392 790" xmlns="http://www.w3.org/2000/svg"><g fill="none" fill-rule="evenodd"><path d="m920 115c164-24 280 31 348 164 102 200 297 515 174 563s-557-397-575-516c-12-79 6-150 53-211zm-551 148c44 24 114 8 211-47 144-84 183-120 180-135-4-15-235-61-326 67-61 85-82 123-65 115z" fill="#bbf7d0"/><path d="m377 267c-7 25 33 80 36 100 141-45 315-105 460-118 3-65 13-126 66-132 176-22-164-39-177-30a874 874 0 0 1 -385 180z" fill="#dcfce7"/><path d="m1382 790c-32-87-60-149-82-186-33-55-148-199-193-228-45-30-114-85-150-98-36-12-77-29-107-29-20 0-92 12-216 35l-200 83c-65-14-121-21-168-21-71 0-159 57-202 21-29-24-46-51-50-83" stroke="#b3d6ff" stroke-width="27"/><path d="m274 362 21 12v25l-21 13-22-13v-25zm0 15-9 5v10l9 5 9-5v-10zm370-86 21 12v25l-21 13-22-13v-25zm0 15-9 5v10l9 5 9-5v-10zm488 106 21 12v25l-21 13-22-13v-25zm0 15-9 5v10l9 5 9-5v-10z" fill="#4b5563"/><path d="m1062 340c-17-34-25-64-25-89 0-37 0-136-62-147s-108 79-108 136" stroke="#b3d6ff" stroke-linecap="round" stroke-width="21"/><ellipse cx="1132" cy="304" fill="#b3d6ff" rx="25" ry="20"/><path d="m420 367c-21-18-35-37-40-58-9-31-24-84 40-150" stroke="#b3d6ff" stroke-linecap="round" stroke-width="19"/><path d="m376 249c-38-11-57-24-57-39" stroke="#b3d6ff" stroke-linecap="round" stroke-width="10"/><path d="m855 223 1 52a6 6 0 0 1 -12 1v-21a506 506 0 0 0 -76 5c-45 6-94 17-146 35l-2 1-46 18-3 1h-1l-3 1-5 2-2 1-69 27 8 19a6 6 0 0 1 -11 4l-20-48a6 6 0 0 1 11-5l8 19 129-50 1-1h1a745 745 0 0 1 225-41v-19a6 6 0 0 1 12-1z" fill="#dc2626"/></g></svg>