<svg xmlns="http://www.w3.org/2000/svg" viewBox="0 0 307 54">
    <g fill="#DB2C28">
        <path
            d="M70.8 1.7c.5.7 1.6 2 1 2.7-.2.1-2.5 2.6-6 4.8-5.2 3.3-11.4 6-12.8 7L4.3 54s-.4 0-.6-.3c-.2-.2-.3-.6-.2-.7l48.7-37.7c2-1.6 6.6-7.7 9.7-10.4 0 0 3.7-3.5 6.3-4.8 1.2-.6 2.6 1.6 2.6 1.6" />
        <path
            d="M2.1 1.7c-.5.7-1.6 2-1 2.7.2.1 2.5 2.6 6 4.8 5.2 3.3 11.4 6 12.8 7L68.6 54s.4 0 .6-.3c.2-.2.3-.6.2-.7L20.7 15.3c-2-1.6-6.6-7.7-9.7-10.4C11 5 7.3 1.4 4.7.1 3.5-.5 2 1.7 2 1.7" />
        <path d="M34.4 47.5h3.8V9.2h-3.8z" />
        <path
            d="M10.4 30.2h52v-3.8h-52zM193 31.6l-.1 6.2c-.1.8-.3 1.5-.8 1.6l-1 .1c-.3 0-.4 0-.4.2s.1.3.5.3h7.4c.4 0 .6 0 .6-.3 0-.1-.1-.2-.3-.2l-1.4-.1c-.8-.1-1-.8-1-1.6-.2-1.2-.2-3.5-.2-6.2v-.4c0-.2 0-.3.2-.3h2.4c.2 0 .4.1.5.3l2.8 4c1.5 2.2 2.6 3.6 3.7 4.3.8.4 1.4.5 3 .5h2.6c.4 0 .6 0 .6-.3l-.4-.2a4.1 4.1 0 01-.8 0c-.4-.2-1.5-.4-3-2-1.7-1.9-3.6-4.5-6-7.7 2.7-2.4 3.6-4.4 3.6-6.5a5 5 0 00-1.9-4 8.6 8.6 0 00-5-1.3l-4 .1H191c-.4 0-.6 0-.6.2s.2.2.5.2l1 .1c1 .2 1.2.7 1.3 1.7v11.2zm3.3-11.7c0-.2 0-.3.2-.4a5.8 5.8 0 011.5-.1c1.6 0 4.2 1.2 4.2 5.3 0 2.4-.8 3.7-1.6 4.4-.5.4-.8.5-2 .5a7 7 0 01-2-.3c-.3-.1-.3-.2-.3-.5v-8.9zm23.1 20.4a9.7 9.7 0 0010.2-10c0-5.8-3.8-9.4-10-9.4a9.5 9.5 0 00-10.1 9.7c0 4.4 2.8 9.7 9.9 9.7zm1-1.3c-4.6 0-7.4-4-7.4-9.1 0-6.1 3.2-7.6 6-7.6 3.8 0 7 3.3 7 8.8 0 7-3.9 8-5.6 8zm15.8.4c.2.7.4 1 .7 1 .3 0 .5-.3 1-1.4 1-2.2 4.2-11 4.6-12l5 12.1c.3 1 .5 1.2.8 1.2.4 0 .5-.2.8-1.1l4.8-14.7c.5-1.4.8-2.4 1.4-2.6l.8-.1c.3 0 .4-.1.4-.3 0-.1-.2-.2-.5-.2h-4.6c-.4 0-.6 0-.6.2s.2.3.4.3c1 0 1.2.3 1.2.7 0 .3 0 .8-.2 1.4L249 34.8l-5-12.2c-.2-.8-.5-1.2-.7-1.2-.3 0-.5.2-.8.9L238 34.9c-.5-1.1-2.7-8.6-3-10.2l-.6-2.3c0-.3 0-.4.2-.5l.6-.1c.3 0 .5 0 .5-.3 0-.1-.2-.2-.5-.2h-5.7c-.3 0-.5 0-.5.2s.1.3.4.3c.2 0 .7 0 1 .2.3.2.5.8.8 1.7l5.1 15.7zm21.9-6.6c0 2.4 0 4.4-.2 5.4 0 .7-.2 1.1-.7 1.2l-.8.1c-.3 0-.4.1-.4.3 0 .1.1.2.4.2h7.2c.2 0 .4 0 .4-.2s0-.3-.4-.3h-1.2c-.7-.2-.9-.6-1-1.3v-15c0-.9.2-1.2.9-1.3l.7-.1c.3 0 .4 0 .4-.3 0-.1-.2-.2-.5-.2h-6.4c-.4 0-.6 0-.6.2s.2.3.4.3l.9.1c.5.2.8.5.8 1.3v9.6zm11.3-6.3h.1c.5.5 3 3.5 5.7 6.2a621.9 621.9 0 007.1 7.1c.3.3.6.5 1 .5.2 0 .4-.2.4-.8l.3-15.6c0-1.4.2-1.8.9-2l.7-.1c.3 0 .4-.1.4-.3 0-.2-.2-.2-.5-.2H280c-.4 0-.6 0-.6.2s0 .3.4.3l1.2.1c.6.3.8.7.9 2.2l.2 11c-.5-.3-3.7-3.8-5.3-5.5l-7.5-8c-.4-.4-.8-.7-1-.7-.3 0-.5.3-.5.8l-.2 14.7c0 2.1-.1 2.8-.8 3l-1 .1c-.3 0-.5.1-.5.3 0 .2.3.2.6.2h5.9c.3 0 .5 0 .5-.2s-.1-.3-.4-.3a3.9 3.9 0 01-1.3-.2c-.4-.1-.7-.7-.8-2.7l-.3-10zm35.5 9.1v-3c0-.8.3-1.2 1-1.3h.6c.2 0 .3-.2.3-.3 0-.2-.1-.3-.5-.3H300c-.4 0-.6 0-.6.3l.4.2 1 .1c.7.2 1 .5 1 1.4v5.1c0 .5 0 .7-.4 1-.6.2-1.1.2-1.7.2-5.2 0-8.5-3.9-8.5-9.2 0-3 .9-4.9 2.2-6a6.6 6.6 0 014.7-1.5c2.8 0 4.6 1 5.3 1.9.6.7.8 1.5.8 2 0 .2.1.3.3.3.2 0 .3-.1.3-.5 0-3.1.2-3.8.2-4 0-.3 0-.4-.3-.4l-2-.2c-.5-.2-2.6-.5-4.3-.5-2 0-4.2.2-6.5 1.6a9.3 9.3 0 00-4.3 8.1c0 6.9 5.3 9.7 11.2 9.7 2 0 4.4-.2 6-1 .3-.2.3-.3.3-1v-2.7z" />
    </g>
    <path fill="#17355A"
        d="M42.3 47.4h11l-11-8.5v8.5zm20.2-4.6v-8.5h-11l11 8.5zm-32.1 4.6v-8.5l-11 8.5h11zm28.5-29.8c-1.3.7-3 1.5-3.3 1.8l-3.8 3h10.7v-6.6a221 221 0 01-3.6 1.8zM23 12.1l7.4 5.7V9.3h-10a34.3 34.3 0 002.6 2.8zM10.4 34.3v8.3l10.8-8.3H10.3zm42-25H42.2v8.6l7.4-5.8a32 32 0 002.6-2.8zM17 19.4l-3.3-1.8a230.3 230.3 0 01-3.4-1.7v6.4h10.5L17 19.4zm58.6 12.2l-.1 6.2c-.1.8-.3 1.5-.9 1.6a4.5 4.5 0 01-1 .1c-.3 0-.4 0-.4.2s.2.3.5.3h5.7l2 .1c5.3 0 7.6-3.2 7.6-6.3 0-3.4-2.8-5.5-5.1-6.3 1.5-1.3 2.9-2.7 2.9-5.1 0-1.6-1-4.4-6.1-4.4l-3.5.1-3.8-.1c-.5 0-.7 0-.7.3s.2.2.5.2l1.1.1c1 .2 1.2.7 1.3 1.7v11.2zM79 19.8c0-.4 0-.5.3-.5l1-.1c2.4 0 3.5 2.6 3.5 4.5 0 1.4-.4 2.5-1.2 3.1-.5.4-1 .6-2 .6a6.9 6.9 0 01-1.4-.1s-.2-.1-.2-.4v-7.1zM85.7 35c0 3-2.2 3.7-3.5 3.7a5 5 0 01-2-.3c-1-.4-1-1-1-2.8v-7l.1-.1h1.2a4 4 0 012.4.7 7 7 0 012.8 5.8zm8.4-2.3V38c-.2.7-.3 1.2-.8 1.3a3.5 3.5 0 01-.9.1c-.3 0-.4.1-.4.3 0 .1.2.2.5.2h7c.3 0 .5 0 .5-.2s-.1-.3-.3-.3a9.2 9.2 0 01-1.3 0c-.7-.2-.8-.7-1-1.4a60.3 60.3 0 010-5.3v-.3l.1-.2h2.3c.2 0 .3 0 .4.2l2.4 3.4c1.4 2 2.3 3 3.4 3.6.7.4 1.4.5 2.8.5h2.4c.3 0 .4 0 .4-.2s0-.3-.3-.3h-.6c-.4-.1-1.3-.3-2.7-1.7-1.5-1.5-3.2-3.8-5.5-6.6 2.5-2 3.5-3.6 3.5-5.4a4.3 4.3 0 00-1.7-3.5c-1.4-.9-3.2-1-4.8-1h-7.3c-.4 0-.6 0-.6.2s.2.3.4.3h1c.8.3 1 .6 1.1 1.4v9.6zm3.2-9.8c0-.2 0-.3.3-.3a8.8 8.8 0 011.4-.1c1.5 0 3.8.9 3.8 4.4 0 2-.8 3.1-1.6 3.6-.4.4-.7.4-1.7.4-.7 0-1.4 0-2-.2l-.2-.4V23zm16.4 9.8l-.1 5.4c-.1.7-.3 1.1-.8 1.2l-.9.1c-.3 0-.4.1-.4.3 0 .1.2.2.5.2h7.3c.3 0 .5 0 .5-.2s0-.3-.4-.3h-1.3c-.7-.2-.9-.6-1-1.3v-15c0-.9.3-1.2 1-1.3l.7-.1c.3 0 .4 0 .4-.3 0-.1-.2-.2-.5-.2H112c-.4 0-.6 0-.6.2s.1.3.4.3l.9.1c.5.2.8.5.9 1.3v9.6zm14.9 0l-.1 5.3c-.1.7-.2 1.2-.8 1.3a3 3 0 01-.8.1c-.4 0-.4.1-.4.3 0 .1.1.2.4.2h7.3c.4 0 .6 0 .6-.2s-.2-.3-.4-.3H133c-.8-.2-1-.7-1-1.4a62 62 0 01-.1-5.3v-10h3.1c2.3.1 3 .9 3 1.5v.3c0 .3.1.5.3.5l.2-.4v-3l-.1-.6-.7.1-1.7.2h-10.2c-.8 0-1.7 0-2.5-.2-.6 0-.9-.2-1-.2-.2 0-.3.1-.4.4l-.5 3c0 .3 0 .4.2.4s.3 0 .3-.3a3 3 0 01.4-.8c.4-.6 1-.8 2.5-.8h3.7v10zm14.7 0l-.1 5.4c-.1.7-.2 1.1-.8 1.2a3.6 3.6 0 01-.8.1c-.4 0-.4.1-.4.3 0 .1.1.2.4.2h7.3c.3 0 .5 0 .5-.2s0-.3-.4-.3h-1.2c-.8-.2-1-.6-1-1.3l-.1-5.4v-9.6c0-.9.3-1.2 1-1.3l.7-.1c.3 0 .4 0 .4-.3 0-.1-.2-.2-.5-.2h-6.6c-.4 0-.6 0-.6.2s.1.3.4.3l1 .1c.5.2.7.5.8 1.3v9.6zm13.4 7.6c1.4 0 3-.2 4.2-1a5.3 5.3 0 002.5-4.7c0-2.2-1-4.1-4.3-6l-1-.6c-2.3-1.3-2.7-2.1-2.7-3.2 0-1.7 1.7-2.7 3.4-2.7s2.5.7 2.8 1.2c.6.6.7 1.4.7 1.6 0 .3 0 .4.3.4.2 0 .3-.2.3-.8v-3c0-.1 0-.2-.3-.2-.6-.2-2-.4-3.6-.4-3.4 0-6.3 1.9-6.3 5 0 2.1 1 3.8 4 5.5l1.4 1c2.2 1.3 2.5 2.3 2.5 3.4 0 1.8-1.3 3.2-3.5 3.2-1.6 0-3.4-.6-4-2.5a4.8 4.8 0 01-.2-1.3c0-.1 0-.4-.3-.4a50 50 0 00-.5 4c0 .5.2.6.6.8 1 .5 2.6.6 4 .6zm14.8-11l-.1-.2v-6c0-.9.3-1.2 1-1.3l.7-.1c.3 0 .4-.1.4-.3s-.1-.2-.5-.2h-7c-.3 0-.5 0-.5.2s.1.3.4.3h1c.8.3 1 .6 1 1.4l.1 5.3v4.3l-.1 5.3c-.1.7-.2 1.2-.8 1.3a3.6 3.6 0 01-.8.1c-.4 0-.4.1-.4.3 0 .1.1.2.4.2h7.3c.3 0 .5 0 .5-.2s0-.3-.4-.3h-1.2c-.8-.2-1-.7-1-1.4a61 61 0 01-.1-5.2V31l.1-.1h9.5l.1.1v7.1c-.2.7-.3 1.2-.8 1.3l-1 .1c-.2 0-.3.2-.3.3 0 .1.2.2.5.2h7.3c.3 0 .5 0 .5-.2 0-.1-.2-.3-.4-.3h-1.3c-.8-.2-.9-.7-1-1.4V23.2c0-.8.2-1.2.9-1.3l.7-.1c.3 0 .5-.1.5-.3s-.2-.2-.6-.2h-6.9c-.4 0-.6 0-.6.2s.2.3.4.3h1c.8.3 1 .6 1 1.4l.1 5.5v.5l-.1.2h-9.5z" />
</svg>