<svg xmlns="http://www.w3.org/2000/svg" viewBox="0 0 210 28">
    <path fill="#12284C"
        d="M26.52 1.6c1 1.08 1.5 2.59 1.5 4.54v13.63h-4.01V6.03c0-1.23-.28-2.17-.84-2.81-.57-.65-1.38-.97-2.45-.97a6.68 6.68 0 0 0-4.46 1.77c.18.7.27 1.4.27 2.12v13.63h-4.08V6.03c0-2.52-1.12-3.78-3.37-3.78a6.4 6.4 0 0 0-4.26 1.69v15.83H.77V.48h1.76L4.1 2.45c.87-.73 1.84-1.33 2.89-1.77A8.43 8.43 0 0 1 10.3 0c2.57 0 4.35.83 5.34 2.5.86-.75 1.82-1.35 2.87-1.8a8.46 8.46 0 0 1 3.4-.7c2.06 0 3.6.54 4.6 1.6ZM34 17.47c-1.27-1.86-1.9-4.3-1.9-7.34 0-3.02.63-5.47 1.9-7.35C35.26.92 37.52 0 40.76 0c3.25 0 5.5.93 6.75 2.8 1.28 1.85 1.92 4.3 1.92 7.32 0 6.76-2.89 10.13-8.67 10.13-3.24 0-5.5-.93-6.77-2.79Zm10.4-1.35c.65-1.42.98-3.41.98-5.99 0-2.57-.33-4.57-.97-6C43.76 2.72 42.55 2 40.76 2c-1.78 0-3 .7-3.65 2.09-.64 1.4-.97 3.4-.97 6.02 0 2.63.33 4.63.97 6.01.64 1.4 1.86 2.11 3.65 2.11 1.8 0 3-.7 3.62-2.13Zm9.8 1.35c-1.28-1.86-1.91-4.3-1.91-7.34 0-3.02.63-5.47 1.9-7.35C55.47.92 57.72 0 60.96 0c3.24 0 5.49.93 6.74 2.8 1.3 1.85 1.93 4.3 1.93 7.32 0 6.76-2.89 10.13-8.67 10.13-3.24 0-5.5-.93-6.76-2.79Zm10.4-1.35c.65-1.42.98-3.41.98-5.99 0-2.57-.33-4.57-.97-6C63.96 2.72 62.74 2 60.95 2c-1.8 0-3.01.7-3.66 2.09-.64 1.4-.96 3.4-.96 6.02 0 2.63.32 4.63.96 6.01.64 1.4 1.86 2.11 3.66 2.11 1.79 0 3-.7 3.63-2.13ZM80.2 1.38a7.35 7.35 0 0 1 4-1.05V3.3c-4.13 0-6.2 1.6-6.2 4.82h-.04v11.65H73.9V.48h1.77l1.92 3.66c.6-1.14 1.5-2.1 2.6-2.77Zm9.18 9v.08c0 2.84.34 4.85 1.02 6.02.68 1.18 1.85 1.77 3.51 1.77 2.73 0 4.17-1.4 4.3-4.22l3.33.17a6.67 6.67 0 0 1-2.05 4.43c-1.18 1.09-3.08 1.63-5.7 1.64-3.02 0-5.2-.83-6.5-2.5-1.31-1.68-1.97-4.22-1.97-7.63 0-3.05.63-5.5 1.87-7.35C88.42.94 90.61.01 93.74 0c3.02 0 5.13.92 6.3 2.75 1.19 1.84 1.78 4.24 1.77 7.21v.4H89.37Zm1.2-6.8c-.64 1.05-1.03 2.65-1.16 4.79h8.47c-.08-2.1-.44-3.67-1.07-4.74C96.2 2.54 95.13 2 93.66 2c-1.42 0-2.45.52-3.09 1.57Zm39.86-1.4h-2.8a7.32 7.32 0 0 1 1.6 4.92 7.99 7.99 0 0 1-1.64 5.06c-1.09 1.4-2.94 2.09-5.56 2.09-1.8 0-3.28-.3-4.46-.89l-1.08 1.05a2.4 2.4 0 0 0-.97 1.89 1.68 1.68 0 0 0 1.77 1.6h7.51a5.9 5.9 0 0 1 4.06 1.32 4.29 4.29 0 0 1 1.48 3.33c0 2.04-.83 3.45-2.5 4.22-1.68.78-3.88 1.17-6.6 1.17-2.63 0-4.67-.37-6.13-1.09-1.46-.72-2.19-1.95-2.18-3.7.01-.73.26-1.45.7-2.05.47-.66 1.1-1.2 1.83-1.56a3.49 3.49 0 0 1-1.68-1.15 2.8 2.8 0 0 1-.62-1.79 4.13 4.13 0 0 1 1.5-3.24l1.24-1.2c-1.18-1.18-1.77-2.87-1.76-5.07a7.58 7.58 0 0 1 1.7-5.02C116.98.69 118.92 0 121.68 0a9.72 9.72 0 0 1 3.3.48h5.45v1.68Zm-13.6 19.02a4.3 4.3 0 0 0-.42 1.83c0 1.04.41 1.78 1.23 2.22.82.45 2.01.66 3.6.66 2.04 0 3.49-.25 4.36-.74.87-.5 1.3-1.37 1.3-2.62.05-.8-.32-1.57-.96-2.06a3.9 3.9 0 0 0-2.4-.72h-5.57c-.48.39-.87.87-1.14 1.43Zm7.67-10.27c.55-.87.82-2.16.82-3.86 0-1.7-.27-2.96-.82-3.8-.55-.87-1.49-1.3-2.83-1.3-1.33 0-2.27.43-2.8 1.3-.54.88-.8 2.14-.81 3.8 0 1.66.26 2.95.8 3.86.54.87 1.48 1.31 2.81 1.31 1.34 0 2.29-.44 2.83-1.3Zm16.22-9.56a7.35 7.35 0 0 1 4-1.05V3.3c-4.13 0-6.19 1.61-6.19 4.83h-.04v11.65h-4.05V.48h1.77l1.92 3.66c.6-1.14 1.5-2.1 2.6-2.77Zm9.17 9v.08c0 2.84.34 4.85 1.03 6.02.68 1.18 1.85 1.77 3.51 1.77 2.73 0 4.16-1.4 4.3-4.22l3.33.17a6.67 6.67 0 0 1-2.05 4.43c-1.18 1.09-3.08 1.63-5.7 1.64-3.03 0-5.2-.83-6.5-2.5-1.31-1.68-1.97-4.22-1.97-7.63 0-3.05.62-5.5 1.87-7.35 1.24-1.84 3.43-2.76 6.56-2.77 3.03 0 5.13.92 6.3 2.75 1.18 1.84 1.77 4.24 1.77 7.21v.4H149.9Zm1.21-6.8c-.64 1.05-1.03 2.65-1.16 4.79h8.46c-.07-2.1-.43-3.67-1.06-4.74-.63-1.08-1.68-1.61-3.15-1.61-1.42 0-2.45.52-3.09 1.57Zm18.15 6.8v.08c0 2.84.34 4.85 1.02 6.02.68 1.18 1.85 1.77 3.51 1.77 2.73 0 4.16-1.4 4.3-4.22l3.33.17a6.67 6.67 0 0 1-2.05 4.43c-1.18 1.09-3.08 1.63-5.7 1.64-3.03 0-5.2-.84-6.51-2.52-1.31-1.67-1.97-4.21-1.97-7.62 0-3.05.62-5.5 1.87-7.35C168.3.93 170.49.01 173.6 0c3.02 0 5.12.92 6.3 2.75 1.18 1.84 1.77 4.24 1.77 7.21v.4h-12.42Zm1.2-6.8c-.64 1.05-1.03 2.65-1.17 4.79h8.48c-.1-2.1-.45-3.67-1.07-4.74-.62-1.08-1.67-1.61-3.15-1.61-1.43 0-2.46.52-3.1 1.57Zm31.63 2.57v13.63h-4.05V6.47c0-1.45-.26-2.52-.76-3.2-.51-.68-1.31-1.02-2.41-1.02-1.64 0-3.24.61-4.82 1.84v15.68h-4.06V.48h1.77l1.6 2.01c.98-.75 2.05-1.36 3.2-1.8A9.2 9.2 0 0 1 195.9 0c4.12 0 6.18 2.05 6.18 6.14Z" />
    <path fill="#3BBFAD"
        d="M206.03 19.33a2.34 2.34 0 0 1-.69-1.64c0-.62.24-1.21.69-1.64.42-.44 1-.69 1.6-.68a2.3 2.3 0 0 1 1.69.68 2.37 2.37 0 0 1-1.69 4.01c-.61 0-1.2-.27-1.6-.73ZM2 27.6a1.59 1.59 0 0 0 1.23-.53l.27.29a2.04 2.04 0 0 1-1.5.63 2 2 0 0 1-.79-3.82 2.15 2.15 0 0 1 2.3.48l-.28.3A1.7 1.7 0 0 0 2 24.42a1.54 1.54 0 0 0-1.45.96 1.69 1.69 0 0 0 .33 1.77c.3.3.71.46 1.13.46Zm3.79.33v-3.85h.42v1.71h2.24v-1.7h.42v3.84h-.42v-1.75H6.22v1.75H5.8Zm5.16 0 1.6-3.85h.5l1.58 3.85h-.45l-.48-1.21h-1.8l-.5 1.2h-.44Zm1.08-1.57h1.51l-.74-1.88-.77 1.88Zm4.7 1.57v-3.85h1.64c.33-.01.65.1.9.3.41.39.46 1.02.13 1.46a1.1 1.1 0 0 1-.59.38l.86 1.7h-.46l-.83-1.63h-1.23v1.64h-.42Zm1.64-3.47h-1.22v1.46h1.2a1 1 0 0 0 .62-.2.66.66 0 0 0 .24-.53c0-.2-.08-.4-.24-.53a.94.94 0 0 0-.62-.2h.02Zm3.09 0v-.38h3.2v.38h-1.4v3.47h-.42v-3.47h-1.38Zm5.36 3.47v-3.85h2.74v.38h-2.32v1.33h1.52v.37h-1.52v1.38h2.35v.38h-2.77Zm5.02 0v-3.85h1.64c.33-.01.65.1.9.3.41.39.47 1.02.13 1.46-.16.19-.37.32-.6.38l.86 1.7h-.46l-.83-1.63h-1.23v1.64h-.4Zm1.62-3.47h-1.2v1.46h1.2a1 1 0 0 0 .62-.2.66.66 0 0 0 .24-.53c0-.2-.08-.4-.24-.53a.95.95 0 0 0-.62-.2Zm3.57 3.47v-3.85h2.74v.38h-2.33v1.33h1.52v.37h-1.52v1.38h2.35v.38h-2.76Zm5.03 0v-3.85h1.27a2.16 2.16 0 0 1 1.46.55c.18.17.32.38.42.6.2.5.2 1.05 0 1.55-.1.23-.24.43-.42.6a2.25 2.25 0 0 1-1.47.54h-1.26Zm1.28-3.45h-.87v3.08h.87c.21 0 .42-.04.62-.13.38-.14.68-.44.83-.8a1.54 1.54 0 0 0-1.45-2.14Zm8.12 3.45 1.6-3.85h.51l1.59 3.85h-.46l-.48-1.21h-1.81l-.5 1.2h-.45Zm1.08-1.57h1.51l-.75-1.88-.76 1.88Zm6.32 1.24a1.57 1.57 0 0 0 1.21-.52l.28.28a2.06 2.06 0 0 1-1.51.63 1.97 1.97 0 0 1-1.83-1.2c-.2-.51-.2-1.07 0-1.57a1.98 1.98 0 0 1 1.84-1.2 2.15 2.15 0 0 1 1.52.63l-.28.3a1.7 1.7 0 0 0-1.86-.42c-.37.16-.67.46-.82.84a1.69 1.69 0 0 0 .32 1.77c.15.14.32.25.5.32.2.1.41.14.63.14Zm5.5 0c.23 0 .46-.05.68-.14.2-.09.4-.22.54-.39l.28.29a2.09 2.09 0 0 1-1.51.63 1.97 1.97 0 0 1-.79-3.81 2.15 2.15 0 0 1 2.3.48l-.27.3a1.7 1.7 0 0 0-1.86-.42c-.38.16-.67.46-.83.84-.16.4-.16.85 0 1.25a1.57 1.57 0 0 0 1.45.96Zm7.45-1.6a1.97 1.97 0 0 1-2.75 1.84c-.48-.2-.86-.58-1.05-1.06a2 2 0 0 1 2.62-2.6c.73.3 1.2 1.02 1.2 1.82h-.02Zm-.43 0c0-.41-.16-.82-.45-1.13a1.54 1.54 0 0 0-2.2 0c-.3.3-.45.72-.45 1.14a1.6 1.6 0 0 0 .45 1.13 1.54 1.54 0 0 0 2.53-.5c.08-.2.12-.42.12-.63Zm5.83.3c.02.45-.14.9-.44 1.23-.65.6-1.66.6-2.31 0-.3-.34-.45-.78-.43-1.23v-2.2h.45v2.22c-.02.35.1.68.33.94a1.18 1.18 0 0 0 1.69 0c.22-.26.34-.6.32-.94V24.1h.43l-.04 2.22Zm2.42-2.22h.42l2.3 3.12v-3.1h.4v3.85h-.37l-2.33-3.2v3.2h-.4l-.02-3.85Zm5.3.38v-.38h3.19v.38h-1.39v3.47h-.42v-3.47h-1.39Zm4.25 3.47 1.6-3.85h.5l1.58 3.85h-.46l-.48-1.21h-1.81l-.49 1.2h-.44Zm1.08-1.57h1.5l-.74-1.88-.76 1.88Zm4.7-2.28h.41l2.31 3.12v-3.1h.4v3.85h-.35l-2.36-3.2v3.2h-.4l-.02-3.85Zm5.29.38v-.38h3.2v.38h-1.4v3.47h-.42v-3.47h-1.38Zm5.05 2.81.28-.3c.18.2.4.36.63.48.22.11.47.17.71.17.27 0 .53-.07.75-.22a.66.66 0 0 0 .28-.54.55.55 0 0 0-.2-.46c-.2-.13-.44-.2-.68-.24l-.55-.08c-.3-.03-.58-.15-.82-.33a.83.83 0 0 1-.26-.66.93.93 0 0 1 .37-.77c.28-.21.63-.32.98-.3.55 0 1.08.18 1.52.51l-.24.33a2.7 2.7 0 0 0-.64-.36 1.9 1.9 0 0 0-.66-.11c-.23-.01-.46.05-.65.18a.58.58 0 0 0-.26.49c0 .16.06.31.18.41.18.12.39.19.6.21l.55.09c.33.03.65.15.91.36.2.17.3.43.3.7a1.04 1.04 0 0 1-.41.82c-.14.1-.3.19-.47.24a2.18 2.18 0 0 1-1.47-.1 2.2 2.2 0 0 1-.75-.52Z" />
</svg>